{"glyphs":{"$":{"x_min":0,"x_max":324,"ha":324,"o":"m 132 212 q 142 257 155 306 q 168 355 174 372 q 176 376 173 375 q 170 374 160 367 q 144 357 126 338 q 108 318 100 303 q 86 276 85 254 q 84 232 94 210 q 97 204 104 195 q 110 186 116 179 q 122 173 123 174 q 124 175 132 212 z m 150 -12 q 165 -5 174 7 q 184 20 185 34 q 187 50 174 70 q 170 76 160 84 q 151 93 150 92 q 148 90 142 58 q 131 5 125 -15 q 124 -18 125 -18 q 126 -19 133 -18 q 142 -16 150 -12 z m 61 -87 q 59 -85 59 -82 q 60 -79 65 -66 q 72 -51 73 -47 q 73 -43 69 -42 q 60 -39 48 -32 q 35 -24 28 -18 q 7 0 5 23 q 4 32 5 35 q 6 39 12 46 q 22 62 36 71 q 50 79 58 74 q 60 73 59 70 q 59 67 56 58 q 52 45 53 36 q 53 27 58 18 q 62 13 67 7 q 73 0 78 -3 q 83 -7 84 -6 q 87 -4 99 52 q 111 107 111 114 q 111 118 91 132 q 70 146 58 157 q 46 169 37 182 q 14 217 22 258 q 30 298 68 338 q 89 360 117 377 q 144 395 173 404 l 188 408 l 195 424 q 204 444 212 451 q 220 458 230 455 q 235 453 233 450 q 230 447 225 431 l 220 415 l 240 415 q 272 415 294 404 q 316 394 324 374 q 331 359 329 340 q 326 321 317 303 q 309 286 294 270 q 278 254 260 246 q 248 240 235 238 q 223 236 214 238 q 203 241 204 245 q 205 250 220 248 q 230 246 240 251 q 249 256 262 270 q 278 286 287 309 q 296 332 293 350 q 290 370 275 383 q 260 395 238 395 q 223 395 218 393 q 212 392 210 386 q 203 363 181 262 q 160 162 160 151 q 160 147 176 137 q 240 98 253 68 q 258 57 258 43 q 258 29 253 18 q 248 8 234 -7 q 217 -24 192 -34 q 166 -45 139 -47 q 120 -48 117 -50 q 113 -52 108 -64 q 102 -79 95 -84 q 88 -90 77 -90 q 65 -90 61 -87 z"},"?":{"x_min":0,"x_max":317,"ha":317,"o":"m 18 -93 q 12 -92 7 -89 q 4 -86 3 -84 q 2 -82 1 -73 q -2 -50 10 -32 q 16 -22 22 -21 q 36 -18 44 -20 q 54 -24 54 -34 q 53 -39 46 -63 q 38 -88 36 -89 q 29 -95 18 -93 z m 36 -12 q 29 -10 23 -4 q 12 6 21 32 q 28 59 49 85 q 69 111 127 170 q 189 233 203 250 q 267 331 267 391 q 267 407 265 416 q 262 425 256 432 q 252 437 249 439 q 246 440 240 440 q 208 440 169 406 q 130 372 106 324 q 86 281 86 246 q 85 229 88 219 q 90 209 97 202 q 102 196 103 194 q 104 192 100 191 q 94 189 83 197 q 72 205 66 216 q 55 238 57 272 q 60 306 74 339 q 92 377 124 410 q 157 442 189 453 q 210 461 234 460 q 258 459 276 450 q 317 429 317 377 q 318 324 278 262 q 263 240 241 215 q 219 190 174 145 q 119 90 99 64 q 80 38 73 8 q 68 -8 64 -11 q 61 -14 52 -14 q 44 -14 36 -12 z"},"<":{"x_min":0,"x_max":296,"ha":296,"o":"m 233 18 q 262 8 270 3 q 283 -5 291 -17 q 299 -29 296 -35 q 295 -38 287 -39 q 279 -39 227 -19 l 114 33 l 79 48 q 14 76 3 87 q 2 87 2 87 q 0 88 1 91 q 0 95 2 96 q 2 96 3 96 q 14 106 79 134 l 114 150 l 227 202 q 279 222 287 221 q 295 221 296 218 q 299 212 291 200 q 283 188 270 180 q 262 175 233 165 q 80 114 67 109 q 38 98 18 91 q 38 85 67 74 q 80 69 233 18 z"},"'":{"x_min":0,"x_max":64,"ha":64,"o":"m 23 452 q 32 454 38 452 q 44 451 46 447 q 49 442 50 438 q 51 434 51 429 q 52 414 50 394 q 48 374 42 354 q 35 335 26 334 q 16 332 8 357 q 1 382 0 415 q 0 432 5 441 q 10 450 23 452 z"},"=":{"x_min":0,"x_max":323,"ha":323,"o":"m 80 94 q 48 92 39 93 q 25 96 12 103 q 0 111 0 118 q 0 121 7 125 q 14 128 70 130 l 194 128 l 233 128 q 314 127 321 120 q 324 116 322 114 q 320 112 254 109 q 240 108 80 94 z m 80 38 q 48 35 39 36 q 25 39 12 47 q 0 54 0 61 q 0 64 7 68 q 14 72 70 74 l 194 71 l 233 71 q 314 70 321 64 q 324 60 322 58 q 320 56 254 52 q 240 52 80 38 z"},"a":{"x_min":0,"x_max":279,"ha":279,"o":"m 126 -66 q 116 -60 112 -52 q 109 -44 109 -22 q 110 2 113 16 q 114 19 115 22 q 115 26 116 28 q 116 30 116 30 q 115 30 99 9 q 58 -42 41 -50 q 24 -58 0 -51 q -24 -44 -31 -22 q -38 0 -27 35 q -6 97 46 149 q 73 176 95 187 q 118 198 144 198 q 147 198 153 199 q 160 199 162 199 q 164 199 169 198 q 173 198 176 197 q 178 195 182 193 q 186 190 190 186 q 198 172 193 157 q 186 137 176 142 q 171 144 172 150 q 173 157 170 164 l 166 172 l 155 161 q 135 143 109 104 q 82 66 62 26 q 46 -7 48 -8 q 50 -10 74 18 q 95 41 124 80 q 145 108 150 113 q 155 119 164 121 q 178 126 194 122 q 210 118 214 109 q 217 104 213 94 q 209 84 190 43 q 173 8 162 -21 q 151 -49 153 -52 q 157 -55 183 -30 q 210 -5 232 23 q 248 42 283 90 q 285 94 289 93 q 293 93 296 89 q 297 88 287 74 q 277 62 260 37 q 234 2 209 -26 q 184 -54 168 -64 q 159 -70 147 -70 q 135 -71 126 -66 z"},"L":{"x_min":0,"x_max":510,"ha":510,"o":"m 236 -138 q 215 -134 193 -119 q 172 -105 169 -92 q 168 -87 171 -82 q 175 -78 182 -75 q 190 -73 212 -70 q 235 -66 244 -66 q 254 -66 257 -64 q 260 -62 266 -39 q 275 3 298 66 q 321 129 346 180 q 386 259 430 321 q 470 379 481 396 q 491 413 489 418 q 488 420 482 421 q 476 421 454 420 q 382 418 302 392 q 222 366 158 325 q 133 310 107 285 q 80 261 68 243 q 47 212 46 183 q 45 168 48 157 q 50 147 59 136 q 64 128 78 118 q 92 109 105 104 q 111 102 115 100 q 119 98 122 96 q 124 94 124 92 q 125 91 124 89 q 121 86 115 86 q 109 87 95 92 q 71 100 50 113 q 29 126 19 140 q 9 154 5 164 q 1 175 0 191 q 0 208 4 223 q 8 237 18 255 q 48 305 119 351 q 190 397 278 425 q 366 452 445 452 q 510 452 540 429 q 555 418 558 405 q 561 393 554 374 q 547 355 527 322 q 484 252 464 215 q 443 178 424 138 q 406 97 386 40 q 366 -17 359 -48 q 356 -60 360 -62 q 363 -64 383 -64 q 418 -64 471 -70 q 524 -76 565 -84 q 595 -91 619 -99 q 643 -107 656 -116 q 668 -124 666 -130 q 664 -137 649 -127 q 630 -113 521 -110 q 469 -108 409 -113 q 348 -117 346 -122 q 344 -128 330 -130 q 316 -133 303 -129 q 296 -127 278 -132 q 260 -138 252 -139 q 245 -140 236 -138 z"},"3":{"x_min":0,"x_max":486,"ha":486,"o":"m 141 -63 q 60 -51 21 -15 q 0 5 0 21 q 1 36 25 56 q 32 62 36 63 q 39 64 46 63 q 56 62 62 58 q 66 55 67 51 q 68 46 69 29 q 70 6 74 0 q 77 -6 90 -9 q 104 -12 132 -12 q 159 -11 178 -8 q 239 2 288 29 q 336 56 352 88 q 377 138 316 155 l 298 160 l 282 154 q 265 149 242 149 q 226 149 220 150 q 214 151 205 156 q 197 160 194 162 q 192 165 191 169 q 190 175 193 178 q 196 182 238 202 q 286 225 318 248 q 350 270 379 300 q 412 334 425 362 q 431 375 431 393 q 431 409 427 416 q 424 423 414 428 q 405 432 386 434 q 367 436 347 434 q 298 429 251 409 q 204 389 175 362 q 146 334 146 308 q 146 288 160 278 q 174 267 204 262 q 224 259 228 256 q 236 248 224 248 q 220 248 212 248 q 177 251 151 265 q 126 278 115 300 q 111 309 110 314 q 109 318 109 326 q 112 354 140 382 q 169 410 215 431 q 262 451 314 458 q 334 461 362 459 q 390 458 406 454 q 450 441 471 414 q 492 387 484 352 q 475 308 432 260 q 389 212 327 176 q 324 174 332 170 q 336 169 342 166 q 393 147 410 111 q 415 100 415 83 q 416 71 414 65 q 413 60 408 48 q 390 12 344 -17 q 298 -46 237 -58 q 222 -61 187 -63 q 152 -65 141 -63 z"},"J":{"x_min":0,"x_max":531,"ha":531,"o":"m 151 -35 q 166 -32 184 -24 q 227 -6 264 25 q 301 56 351 114 l 355 120 l 306 118 q 235 116 187 107 q 140 98 104 80 q 73 64 59 43 q 44 22 50 3 q 55 -17 80 -30 q 93 -36 112 -38 q 131 -39 151 -35 z m 101 -76 q 44 -67 18 -40 q 8 -31 4 -22 q 0 -13 0 0 q 0 39 48 71 q 96 103 176 118 q 230 128 310 130 l 364 131 l 376 147 q 406 186 437 235 q 468 284 485 319 q 512 374 512 406 q 512 422 509 430 q 506 438 497 442 q 491 444 487 444 q 484 444 471 442 q 425 432 375 390 q 326 348 298 294 q 288 274 281 253 q 274 232 274 219 q 273 206 271 203 q 270 200 260 201 q 250 202 246 205 q 236 212 240 237 q 244 262 258 290 q 280 334 318 372 q 375 430 440 452 q 457 458 483 460 q 509 461 523 456 q 549 448 560 430 q 572 411 572 379 q 571 338 548 277 q 526 215 487 150 q 474 127 474 126 q 475 126 500 124 q 535 122 535 118 q 535 117 534 116 q 533 114 499 115 q 465 116 464 114 q 463 111 447 89 q 396 22 338 -17 q 279 -57 208 -72 q 188 -76 153 -77 q 117 -78 101 -76 z"},"V":{"x_min":0,"x_max":652,"ha":652,"o":"m 328 -142 q 315 -139 307 -135 q 298 -130 290 -122 q 253 -85 292 18 q 306 54 328 95 q 350 136 388 198 q 446 291 464 329 q 482 368 481 392 q 480 409 471 415 q 462 422 440 422 q 396 422 331 399 q 266 376 210 342 q 156 308 119 270 q 82 232 70 197 q 67 187 66 181 q 65 174 66 162 q 67 136 80 117 q 94 98 126 77 q 151 60 153 58 q 156 53 146 51 q 141 50 135 51 q 112 54 84 67 q 56 81 36 100 q 4 130 1 163 q -3 196 21 237 q 28 250 59 280 q 89 310 106 322 q 183 376 271 410 q 358 444 424 444 q 465 444 491 431 q 517 419 526 396 q 538 364 532 321 q 526 278 502 219 q 492 195 454 116 q 401 8 386 -36 q 372 -80 373 -102 l 374 -112 l 386 -104 q 409 -88 444 -56 q 478 -24 504 6 q 520 26 524 31 q 530 38 550 65 q 570 92 583 112 q 631 183 664 253 q 696 324 706 377 q 710 395 709 417 q 708 440 704 447 q 702 452 702 454 q 702 455 704 457 q 708 460 717 460 q 726 460 733 456 q 740 452 743 441 q 746 429 744 405 q 740 338 692 236 q 644 134 569 36 q 525 -22 482 -63 q 386 -155 328 -142 z"},"\"":{"x_min":0,"x_max":146,"ha":146,"o":"m 123 446 q 128 446 134 444 q 150 437 150 425 q 150 418 146 409 q 135 389 114 364 q 93 340 79 340 q 77 340 75 341 q 70 343 70 353 q 70 365 76 385 q 83 404 95 423 q 108 446 123 446 z m 58 446 q 63 446 69 444 q 86 437 86 425 q 86 418 81 409 q 70 389 49 364 q 28 340 14 340 q 12 340 10 341 q 5 343 5 353 q 5 365 12 385 q 18 404 30 423 q 43 446 58 446 z"},"7":{"x_min":0,"x_max":374,"ha":374,"o":"m 67 -65 q 58 -62 50 -57 q 42 -52 39 -47 q 36 -42 36 -39 q 36 -36 37 -26 q 44 8 80 85 q 115 163 162 245 q 208 328 244 375 q 264 403 265 406 q 265 406 263 407 q 260 407 255 408 q 249 408 240 408 q 231 408 216 408 q 177 408 152 411 q 126 413 93 419 q 59 426 33 436 q 8 446 2 454 q -2 460 4 460 q 7 460 15 458 q 62 448 102 444 q 142 439 194 440 q 281 440 300 452 q 308 457 327 456 q 345 454 358 448 q 378 438 375 428 q 373 424 350 389 q 275 279 224 186 q 173 93 131 -10 q 116 -48 110 -55 q 95 -72 67 -65 z"},"S":{"x_min":0,"x_max":401,"ha":401,"o":"m 142 -76 q 165 -69 181 -54 q 206 -31 200 -6 q 197 2 195 3 q 192 5 187 4 q 182 2 167 -5 q 137 -20 119 -37 q 102 -54 102 -68 q 102 -76 104 -78 q 106 -80 119 -79 q 133 -78 142 -76 z m 109 -100 q 71 -90 64 -69 q 58 -49 86 -23 q 115 3 164 20 l 180 26 l 166 37 q 152 48 115 74 q 67 107 45 128 q 23 148 11 172 q 5 184 3 191 q 1 197 0 208 q -1 237 14 264 q 28 290 63 321 q 109 362 186 400 q 262 437 332 452 q 391 464 439 458 q 486 452 512 428 q 526 415 528 399 q 530 382 519 360 q 510 338 491 316 q 472 293 422 242 q 374 194 361 175 q 348 157 352 144 q 353 141 348 140 q 341 139 333 145 q 312 159 329 192 q 335 204 348 220 q 362 237 394 272 q 439 321 456 346 q 472 372 474 392 q 474 407 472 412 q 470 416 467 416 q 465 417 456 416 q 408 410 329 363 q 250 316 199 262 q 132 192 155 143 q 160 132 172 120 q 183 107 219 74 l 250 44 l 354 69 q 400 80 406 73 q 409 70 408 68 q 407 68 335 48 q 264 29 262 29 q 262 29 262 28 q 263 27 264 25 q 265 22 267 20 q 274 8 276 -5 q 279 -19 277 -30 q 272 -52 247 -71 q 222 -90 186 -99 q 170 -103 145 -104 q 121 -104 109 -100 z"},"}":{"x_min":0,"x_max":280,"ha":280,"o":"m 16 -60 q 0 -56 0 -42 q 0 -34 3 -30 q 6 -26 11 -27 q 15 -28 16 -29 q 17 -31 18 -38 q 19 -47 21 -48 q 26 -50 44 -31 q 62 -13 78 12 q 137 102 154 125 q 172 149 196 172 q 214 190 227 197 l 239 204 l 236 211 q 232 218 231 237 q 230 251 232 271 q 235 290 242 334 q 249 372 250 403 q 251 434 245 442 q 239 450 221 434 q 215 429 213 428 q 210 427 207 429 q 202 432 202 436 q 202 441 208 447 q 214 454 223 457 q 229 460 233 460 q 237 460 244 458 q 266 454 274 437 q 282 420 279 389 q 277 368 263 313 q 256 284 252 264 q 248 244 248 231 q 247 218 250 212 q 252 206 258 206 q 263 206 270 203 q 277 199 277 197 q 277 194 271 191 q 266 188 262 189 q 258 191 243 181 q 229 171 214 156 q 197 139 178 115 q 160 90 126 39 q 95 -6 79 -27 q 62 -47 50 -54 q 33 -64 16 -60 z"},"Z":{"x_min":0,"x_max":437,"ha":437,"o":"m 480 -94 q 456 -75 403 -62 q 349 -48 282 -47 q 214 -45 156 -55 q 98 -64 71 -83 q 62 -89 56 -89 q 45 -89 31 -81 q 16 -73 7 -62 q -2 -52 0 -45 q 2 -40 12 -34 q 39 -15 86 29 q 134 72 211 148 q 297 232 346 276 q 395 319 441 350 q 446 354 449 356 q 453 359 455 360 q 457 362 457 362 q 456 362 418 348 q 299 304 242 312 q 211 316 186 329 q 162 341 148 360 q 138 374 137 388 q 136 403 144 415 q 151 428 164 438 q 178 448 197 454 q 216 460 238 460 q 259 460 277 454 q 296 449 304 440 q 308 436 304 433 q 301 431 287 426 q 260 416 243 399 q 225 381 222 361 q 220 352 225 348 q 233 339 270 341 q 306 343 351 354 q 394 365 489 398 q 588 434 609 434 q 616 434 624 430 q 632 426 632 423 q 632 421 620 418 q 596 413 554 387 q 512 361 472 328 q 434 296 395 255 q 355 214 293 144 q 262 109 183 24 l 150 -11 l 206 -12 q 294 -14 364 -31 q 433 -48 474 -77 q 484 -84 490 -91 q 497 -98 497 -101 q 497 -106 486 -99 q 483 -97 480 -94 z"},"x":{"x_min":0,"x_max":254,"ha":254,"o":"m -63 -40 l -13 6 l -10 30 q -6 76 11 127 q 25 171 37 185 q 50 199 76 200 q 107 202 118 190 q 123 185 123 174 q 123 164 118 142 q 112 120 113 119 q 114 119 160 159 q 207 199 215 208 q 222 215 230 209 q 232 208 229 204 q 224 198 156 138 q 106 93 104 88 q 101 81 93 51 q 85 20 81 2 q 78 -14 76 -32 q 75 -51 78 -53 q 79 -55 91 -50 q 102 -45 117 -36 q 178 -1 241 70 q 256 85 261 90 q 267 95 271 95 q 277 95 277 93 q 277 90 255 64 q 234 38 210 14 q 159 -38 127 -58 q 94 -78 63 -78 q 28 -78 9 -59 q 2 -52 -4 -40 q -10 -28 -10 -20 q -10 -14 -12 -14 q -14 -14 -44 -41 q -82 -74 -91 -82 q -101 -90 -105 -90 q -111 -90 -112 -87 q -114 -85 -63 -40 z"},")":{"x_min":0,"x_max":299,"ha":299,"o":"m 13 -51 q 7 -49 4 -45 q 0 -41 0 -37 q 0 -35 1 -34 q 3 -34 7 -34 q 14 -35 19 -37 q 22 -38 26 -35 q 29 -33 38 -26 q 73 7 120 83 q 168 160 208 246 q 248 333 262 393 q 268 413 268 428 q 268 442 264 444 q 249 448 250 454 q 250 457 256 459 q 265 461 275 459 q 285 456 292 450 q 297 445 298 441 q 299 438 299 425 q 299 380 260 287 q 221 193 166 101 q 111 9 68 -30 q 36 -60 13 -51 z"},"&":{"x_min":0,"x_max":402,"ha":402,"o":"m 275 236 q 318 256 348 288 q 377 319 380 348 q 382 370 371 384 q 366 390 362 390 q 358 390 348 386 q 315 371 275 292 q 264 270 255 249 q 246 229 246 226 q 246 222 275 236 z m 163 183 q 164 186 162 186 q 160 186 155 184 q 84 167 61 150 q 52 143 46 134 q 40 125 40 118 q 40 106 51 94 q 62 82 80 73 q 90 68 105 62 q 120 56 123 57 q 124 57 132 86 q 139 115 151 147 q 162 179 163 183 z m 167 -100 q 151 -94 141 -83 q 131 -73 124 -55 q 120 -47 120 -38 q 119 -30 119 -5 l 118 32 l 102 37 q 67 48 40 65 q 12 83 4 101 q -2 114 2 128 q 6 141 18 152 q 33 165 61 175 q 90 185 140 196 q 172 202 172 203 q 172 203 183 226 q 204 274 232 315 q 298 414 362 403 q 382 400 395 383 q 400 377 401 373 q 402 369 402 354 q 402 340 401 334 q 400 329 394 317 q 379 287 345 261 q 311 234 262 215 q 238 206 237 203 q 234 199 208 127 q 182 56 182 51 q 184 49 196 50 q 209 50 228 54 q 248 58 261 62 q 292 73 316 92 q 340 110 350 132 q 355 142 356 148 q 358 154 358 164 q 358 180 355 183 q 352 185 343 177 q 334 168 329 156 q 324 147 322 146 q 320 144 314 147 q 309 150 307 155 q 306 160 307 166 q 309 172 313 179 q 316 186 323 191 q 329 196 336 199 q 349 204 365 199 q 381 194 390 182 q 402 165 400 139 q 398 104 367 75 q 336 45 286 32 q 251 22 206 22 l 173 22 l 171 12 q 166 -11 165 -22 q 164 -32 164 -48 q 166 -71 172 -81 q 178 -91 190 -89 q 220 -83 257 -37 q 269 -22 273 -19 q 277 -16 281 -19 q 284 -21 280 -28 q 268 -51 251 -70 q 233 -89 218 -96 q 206 -102 192 -103 q 178 -104 167 -100 z"},"_":{"x_min":0,"x_max":420,"ha":420,"o":"m 80 -51 q 48 -54 39 -52 q 25 -50 12 -42 q 0 -34 0 -27 q 0 -24 7 -21 q 14 -17 70 -14 l 292 -18 l 330 -18 q 411 -18 418 -25 q 422 -29 419 -31 q 417 -33 351 -36 q 330 -38 267 -40 q 203 -43 198 -44 l 160 -45 q 97 -49 80 -51 z"},"v":{"x_min":0,"x_max":235,"ha":235,"o":"m -3 -72 q -12 -68 -17 -64 q -22 -60 -26 -52 q -39 -27 -19 42 q -8 80 14 126 q 35 172 48 185 q 55 193 64 196 q 72 199 87 199 q 103 199 113 193 q 124 188 124 179 q 124 173 101 128 q 66 59 48 16 q 43 1 37 -20 q 31 -42 32 -44 q 33 -48 50 -35 q 67 -22 89 0 q 112 21 126 39 q 153 73 176 113 q 198 152 207 183 q 213 203 213 227 q 214 251 209 263 q 204 276 191 288 q 178 300 182 301 q 183 302 186 302 q 196 302 208 293 q 220 284 226 272 q 234 257 234 231 q 235 206 228 180 q 217 136 184 81 q 151 26 112 -17 q 73 -60 45 -71 q 34 -75 21 -75 q 7 -76 -3 -72 z"},"O":{"x_min":0,"x_max":470,"ha":470,"o":"m 108 -124 q 56 -120 28 -88 q 0 -56 0 -1 q 0 63 38 138 q 76 212 138 269 q 178 306 201 306 q 212 306 212 304 q 212 300 186 278 q 183 276 180 273 q 143 242 110 194 q 76 146 59 100 q 42 56 41 15 q 41 -25 56 -53 q 76 -89 108 -96 q 144 -104 201 -61 q 258 -18 302 51 q 357 137 371 230 q 386 322 353 378 q 346 391 332 403 q 319 416 306 421 q 280 433 243 422 q 205 412 166 382 q 118 347 81 289 q 45 231 40 184 q 39 174 38 171 q 36 168 33 168 q 27 166 22 168 q 19 169 18 172 q 17 176 17 190 q 17 239 44 294 q 71 349 114 390 q 153 426 194 443 q 236 460 287 460 q 398 460 449 381 q 472 344 476 293 q 480 242 464 184 q 448 122 406 58 q 365 -6 314 -48 q 211 -133 108 -124 z"},"(":{"x_min":0,"x_max":299,"ha":299,"o":"m 19 -51 q 12 -48 6 -42 q -6 -27 8 29 q 22 82 54 153 q 86 223 122 286 q 158 348 195 396 q 232 445 256 456 q 269 462 283 459 q 298 455 299 445 q 300 442 299 441 q 298 440 293 441 q 285 442 280 444 q 271 447 239 408 q 207 369 173 313 q 116 220 73 118 q 30 16 32 -23 q 33 -32 34 -35 q 35 -37 40 -38 q 46 -40 49 -43 q 52 -46 50 -49 q 48 -52 37 -52 q 26 -53 19 -51 z"},"C":{"x_min":0,"x_max":436,"ha":436,"o":"m 116 -110 q 74 -99 44 -70 q 33 -58 28 -52 q 23 -45 18 -34 q 3 -3 1 32 q -4 102 36 184 q 75 267 147 338 q 250 440 344 457 q 363 460 376 460 q 389 460 407 456 q 444 448 462 429 q 480 410 478 381 q 475 332 427 286 q 398 259 363 242 q 328 225 300 225 q 293 225 287 227 q 280 228 276 230 q 272 233 274 234 q 274 237 288 237 q 312 237 341 253 q 370 268 395 294 q 419 318 430 338 q 440 358 440 381 q 440 400 430 414 q 420 427 407 425 q 386 422 352 397 q 317 373 284 338 q 202 253 154 155 q 105 56 109 -17 q 110 -44 116 -59 q 122 -74 133 -82 q 138 -85 143 -86 q 147 -86 159 -86 q 194 -86 237 -68 q 280 -50 325 -17 q 340 -5 370 23 q 400 50 424 75 q 434 86 439 90 q 444 94 447 94 q 453 94 456 90 q 458 87 455 84 q 400 16 352 -25 q 305 -66 256 -90 q 228 -103 209 -108 q 191 -113 163 -113 q 132 -114 116 -110 z"},"W":{"x_min":0,"x_max":934,"ha":934,"o":"m 318 -135 q 304 -131 293 -121 q 282 -111 277 -98 q 272 -86 272 -65 q 272 -45 278 -23 q 288 21 315 72 q 341 124 405 229 q 471 336 479 371 q 483 386 483 393 q 482 400 478 409 q 474 419 466 422 q 458 426 438 425 q 384 425 306 394 q 228 363 167 317 q 151 305 128 284 q 106 262 96 249 q 84 234 76 216 q 67 198 64 184 q 59 154 74 129 q 88 104 124 80 q 146 66 150 63 q 153 60 152 58 q 149 53 128 56 q 108 60 88 70 q 38 92 16 127 q -6 161 4 200 q 17 251 83 306 q 148 362 245 402 q 348 446 424 447 q 500 447 522 404 q 546 357 518 268 q 510 242 496 211 q 483 181 453 120 q 414 39 398 0 q 382 -39 376 -69 q 374 -78 373 -87 q 372 -96 372 -102 q 372 -109 373 -109 q 376 -109 395 -94 q 414 -80 429 -67 q 510 5 584 117 q 606 150 614 166 q 623 181 639 214 q 661 263 674 284 q 688 304 699 309 q 706 312 716 312 q 727 312 734 309 q 748 303 742 279 q 737 255 702 160 q 666 64 650 13 q 635 -38 635 -64 q 635 -93 645 -93 q 655 -93 682 -77 q 710 -60 735 -39 q 815 27 884 127 q 953 226 978 310 q 984 329 985 338 q 986 347 986 367 q 986 389 986 395 q 985 401 980 411 q 967 439 942 446 q 928 450 928 454 q 928 456 931 458 q 936 461 947 460 q 959 458 968 454 q 985 445 996 429 q 1007 413 1010 391 q 1016 352 997 293 q 977 234 935 165 q 880 74 804 -5 q 728 -84 676 -105 q 652 -115 628 -113 q 604 -110 590 -96 q 579 -86 576 -73 q 572 -60 573 -28 q 573 8 579 33 q 584 58 584 59 q 584 59 582 57 q 580 56 578 52 q 575 49 572 45 q 548 11 511 -29 q 474 -68 448 -89 q 406 -123 376 -133 q 346 -144 318 -135 z"},"A":{"x_min":0,"x_max":620,"ha":620,"o":"m 504 150 q 528 212 565 284 q 579 312 576 310 q 571 305 523 251 q 474 197 466 188 l 458 180 l 468 163 q 479 142 487 116 q 488 114 489 114 q 490 114 504 150 z m 46 -132 q 35 -130 24 -124 q 12 -118 8 -111 q -2 -97 6 -80 q 14 -64 31 -64 q 39 -64 46 -67 q 54 -71 54 -75 q 54 -79 47 -81 q 42 -82 41 -84 q 40 -86 39 -94 q 38 -104 44 -110 l 48 -116 l 64 -112 q 112 -102 185 -47 q 257 8 369 121 l 423 175 l 412 186 q 401 196 391 200 q 381 203 370 201 q 351 197 331 180 q 312 164 301 142 q 288 116 295 91 q 297 84 294 80 q 292 76 289 76 q 286 75 277 76 q 256 78 234 93 q 211 108 202 127 q 197 138 196 154 q 195 164 196 169 q 198 174 203 184 q 216 212 248 230 q 280 247 316 247 q 349 247 381 236 q 412 224 435 204 l 443 196 l 479 234 q 598 358 637 407 q 649 422 655 428 q 663 434 677 435 q 691 435 704 431 q 717 427 726 419 q 736 412 736 403 q 736 393 694 323 q 641 234 604 160 q 537 21 530 -49 q 528 -69 526 -71 q 520 -75 505 -72 q 491 -68 479 -61 q 471 -56 465 -47 q 461 -41 460 -36 q 460 -31 460 -13 q 460 13 465 36 q 470 52 470 58 q 470 64 469 74 q 466 95 454 124 q 443 154 438 155 q 436 156 402 119 q 368 83 319 35 q 270 -14 246 -34 q 180 -91 131 -115 q 82 -139 46 -132 z"},"f":{"x_min":0,"x_max":187,"ha":187,"o":"m 6 -146 q 20 -129 32 -103 q 44 -78 50 -50 q 54 -36 55 -11 q 56 14 53 24 q 52 28 49 25 q 47 22 37 2 q -15 -104 -18 -150 l -19 -170 l -12 -165 q -4 -159 6 -146 z m -41 -180 q -46 -177 -50 -174 q -53 -170 -56 -163 q -61 -155 -62 -149 q -63 -143 -63 -127 q -63 -82 -40 -13 q -18 56 24 140 q 57 208 93 264 q 128 320 146 332 q 152 336 156 338 q 160 339 171 338 q 183 338 194 335 q 204 331 206 325 q 210 315 200 294 q 190 274 135 180 q 62 55 65 52 q 65 52 66 50 q 68 49 70 46 q 72 44 73 42 q 83 33 93 35 q 106 37 133 50 q 160 63 182 79 q 208 98 211 91 q 211 91 211 90 q 212 85 186 66 q 159 47 135 35 q 102 18 82 23 l 73 25 l 74 -4 q 75 -28 73 -44 q 70 -60 63 -82 q 51 -117 33 -145 q 15 -174 -2 -182 q -8 -186 -20 -185 q -32 -184 -41 -180 z"},"Q":{"x_min":0,"x_max":444,"ha":444,"o":"m 101 -121 q 52 -116 26 -85 q 0 -53 0 2 q 0 65 36 139 q 72 214 130 270 q 167 307 188 307 q 198 307 199 305 q 199 301 172 277 q 170 276 168 274 q 134 244 103 196 q 71 148 55 102 q 40 58 39 18 q 38 -22 52 -50 q 65 -74 83 -86 q 102 -97 123 -93 q 147 -88 175 -68 q 186 -61 200 -49 q 214 -36 214 -35 q 213 -32 176 -21 q 139 -11 121 -8 q 104 -6 96 1 q 83 12 75 28 q 67 45 71 53 q 72 56 75 57 q 77 58 85 57 q 96 56 130 44 q 164 33 203 18 q 243 1 246 1 q 250 1 270 33 q 290 65 304 92 q 343 174 351 252 q 358 330 331 379 q 324 391 311 403 q 299 416 287 421 q 262 433 227 423 q 192 412 155 383 q 111 347 76 290 q 42 232 38 186 q 36 176 35 173 q 34 170 31 169 q 26 168 21 169 q 18 170 17 174 q 16 177 16 191 q 16 240 41 295 q 66 350 107 391 q 144 427 182 443 q 220 460 268 460 q 373 460 420 381 q 446 338 446 273 q 446 204 416 130 q 386 56 332 -8 q 314 -27 316 -28 q 317 -30 363 -48 q 408 -66 430 -73 q 451 -80 475 -86 q 498 -92 500 -90 q 502 -88 506 -91 q 510 -95 510 -99 q 510 -102 508 -104 q 506 -106 500 -107 q 467 -116 319 -67 l 283 -55 l 271 -64 q 186 -129 101 -121 z"},"w":{"x_min":0,"x_max":378,"ha":378,"o":"m 139 -78 q 130 -75 125 -71 q 120 -66 116 -58 q 112 -51 111 -46 q 111 -40 112 -24 q 113 -1 116 11 q 116 12 117 12 q 119 20 118 20 q 118 21 112 14 q 109 10 101 -1 l 101 -1 l 100 -2 l 100 -2 l 100 -2 l 100 -3 l 99 -3 l 99 -4 q 82 -27 63 -46 q 44 -66 34 -71 q 12 -83 -9 -77 q -30 -71 -34 -52 q -40 -21 -21 40 q -2 101 32 156 q 50 187 63 198 q 75 208 94 208 q 107 208 115 205 q 123 201 124 196 q 125 190 120 180 q 115 169 95 131 q 54 56 36 9 q 29 -8 23 -28 q 18 -48 18 -51 q 19 -52 20 -51 q 22 -50 25 -49 q 27 -47 30 -44 q 57 -23 95 28 q 133 79 161 132 q 173 155 179 165 q 184 174 192 182 q 199 189 205 190 q 211 192 223 192 q 242 194 254 188 q 266 182 266 173 q 266 167 243 122 q 208 53 190 9 q 185 -5 179 -27 q 173 -48 174 -51 q 175 -55 192 -41 q 209 -28 231 -7 q 254 15 268 32 q 295 67 318 106 q 340 146 349 176 q 355 196 356 220 q 356 244 351 257 q 346 269 333 282 q 320 293 324 295 q 325 295 328 295 q 338 295 350 286 q 362 277 368 266 q 376 250 376 225 q 377 200 370 173 q 359 130 326 75 q 294 20 254 -23 q 215 -66 187 -77 q 177 -81 163 -82 q 149 -82 139 -78 z"},"-":{"x_min":0,"x_max":323,"ha":323,"o":"m 80 158 q 48 156 39 157 q 25 160 12 167 q 0 175 0 182 q 0 185 7 189 q 14 192 70 195 l 194 192 l 233 192 q 314 191 321 184 q 324 180 322 178 q 320 176 254 173 q 240 172 80 158 z"},"E":{"x_min":0,"x_max":467,"ha":467,"o":"m 95 -90 q 66 -84 42 -68 q 17 -53 8 -34 q 2 -22 1 -10 q 0 1 2 16 q 9 51 40 88 q 71 125 122 158 q 136 168 162 181 q 187 194 201 200 q 205 201 203 203 q 202 204 194 207 q 182 213 171 223 q 161 233 156 243 q 146 268 162 303 q 171 320 182 334 q 192 348 211 366 q 244 398 287 421 q 329 444 373 454 q 396 459 425 460 q 454 460 469 456 q 498 447 509 432 q 518 418 517 397 q 515 376 503 353 q 480 310 436 277 q 393 245 358 244 q 337 244 337 249 q 337 252 353 253 q 372 255 397 269 q 422 284 445 308 q 488 352 488 391 q 488 419 470 431 q 451 443 415 432 q 370 416 326 380 q 283 343 261 302 q 249 280 247 265 q 244 250 250 238 q 255 230 262 226 q 269 222 284 220 q 311 215 311 206 q 311 201 304 196 q 298 190 267 171 q 132 84 96 13 q 75 -29 90 -49 q 106 -70 167 -64 q 224 -59 278 -35 q 333 -10 425 50 q 435 57 448 66 q 461 74 467 79 q 474 83 481 88 q 488 92 492 93 q 495 95 497 94 q 504 92 505 90 q 505 89 499 84 q 482 68 426 27 q 370 -14 345 -30 q 278 -70 214 -85 q 149 -101 95 -90 z"},"s":{"x_min":0,"x_max":212,"ha":212,"o":"m 4 -59 q 19 -55 27 -43 q 36 -30 34 -15 q 34 -2 32 0 q 30 1 18 -9 q 5 -19 -1 -28 q -14 -44 -10 -56 q -8 -61 -6 -61 q -4 -62 4 -59 z m -7 -81 q -22 -77 -31 -69 q -41 -62 -43 -53 q -46 -43 -33 -28 q -21 -13 3 3 q 23 16 24 17 q 24 18 14 35 q 4 52 1 64 q -3 76 -2 89 q 0 113 22 140 q 44 167 77 185 q 102 198 128 202 q 148 204 168 198 q 188 192 194 181 q 200 168 176 146 q 160 130 146 124 q 132 117 126 122 q 124 125 132 132 q 138 138 146 150 q 153 162 151 164 q 150 165 137 156 q 124 146 113 136 q 85 110 73 85 q 70 78 69 73 q 68 68 68 59 q 70 45 71 43 q 72 42 99 53 q 144 72 189 85 q 234 98 236 92 q 236 90 213 82 q 150 63 106 42 l 78 29 l 85 11 q 96 -16 94 -34 q 92 -51 77 -65 q 62 -78 39 -82 q 15 -87 -7 -81 z"},">":{"x_min":0,"x_max":296,"ha":296,"o":"m 65 53 q 217 104 230 109 q 260 120 280 126 q 260 133 230 144 q 217 149 65 200 q 35 210 27 215 q 15 223 7 235 q -2 247 1 253 q 2 256 10 256 q 18 257 70 237 l 184 185 l 219 169 q 283 141 294 131 q 295 131 295 131 q 298 130 297 126 q 298 123 295 122 q 295 122 294 122 q 283 112 219 83 l 184 68 l 70 16 q 18 -4 10 -3 q 2 -3 1 0 q -2 6 7 18 q 15 30 27 38 q 35 43 65 53 z"},"l":{"x_min":0,"x_max":162,"ha":162,"o":"m -5 -82 q -18 -75 -23 -63 q -29 -50 -29 -28 q -29 43 40 182 q 68 237 100 291 q 133 344 160 380 q 180 404 192 412 q 204 420 222 418 q 252 414 252 397 q 252 390 243 372 q 233 354 205 309 q 53 60 28 -40 q 24 -54 24 -59 q 25 -63 26 -63 q 28 -63 38 -54 q 75 -23 134 50 q 168 93 171 93 q 174 93 177 91 q 180 89 175 83 q 171 76 144 39 q 70 -61 40 -80 q 34 -84 29 -85 q 25 -86 16 -86 q 3 -86 -5 -82 z"},"8":{"x_min":0,"x_max":355,"ha":355,"o":"m 233 248 q 302 305 321 350 q 341 396 310 426 q 289 448 272 439 q 264 435 245 416 q 229 400 219 384 q 209 368 202 346 q 198 334 197 326 q 196 318 196 298 q 196 275 198 262 q 200 248 205 233 q 207 229 208 229 q 211 229 233 248 z m 146 -66 q 175 -59 194 -41 q 212 -24 220 3 q 224 20 222 39 q 219 58 209 82 q 203 97 185 130 q 167 164 165 164 q 164 164 136 140 q -8 13 48 -44 q 65 -62 92 -68 q 118 -74 146 -66 z m 105 -94 q 71 -88 45 -73 q 18 -58 6 -38 q 2 -31 1 -26 q 0 -21 0 -7 q 0 9 2 14 q 3 20 10 33 q 19 52 30 67 q 42 83 68 109 q 94 134 123 158 q 154 184 154 185 q 154 185 146 204 q 130 239 124 270 q 121 282 121 304 q 122 326 124 340 q 134 387 173 422 q 212 457 257 460 q 292 462 320 444 q 348 427 354 399 q 361 364 331 320 q 300 276 226 214 l 216 206 l 224 191 q 232 175 253 139 q 280 93 292 65 q 303 37 302 14 q 302 -23 277 -51 q 251 -79 206 -91 q 189 -96 157 -97 q 124 -98 105 -94 z"},"\\":{"x_min":0,"x_max":297,"ha":297,"o":"m 297 -25 q 296 -28 290 -28 q 285 -28 271 -5 q 256 17 188 130 q 24 404 6 439 q 1 449 1 452 q 0 454 2 456 q 5 460 13 460 q 21 460 25 458 q 33 450 210 136 q 272 26 285 1 q 298 -23 297 -25 z"},"e":{"x_min":0,"x_max":188,"ha":188,"o":"m 139 124 q 155 150 155 164 q 154 169 151 169 q 147 169 115 125 q 83 82 74 63 l 71 58 l 78 62 q 86 66 108 88 q 130 110 139 124 z m 8 -83 q -2 -81 -12 -75 q -21 -68 -26 -59 q -34 -44 -33 -16 q -32 12 -22 42 q -4 94 30 137 q 64 179 104 198 q 133 212 158 211 q 183 209 193 193 q 198 185 197 178 q 196 170 190 157 q 176 129 142 95 q 108 62 76 46 l 59 37 l 46 11 q 24 -32 21 -58 l 20 -68 l 28 -64 q 52 -54 89 -21 q 125 12 167 62 q 186 84 191 89 q 196 94 201 94 q 208 94 208 93 q 208 91 195 73 q 152 17 107 -27 q 62 -72 40 -80 q 30 -83 24 -84 q 18 -84 8 -83 z"},"b":{"x_min":0,"x_max":254,"ha":254,"o":"m 57 -8 q 78 14 101 49 q 124 84 142 120 q 159 153 157 155 q 156 156 131 129 q 113 108 83 69 q 54 30 48 18 q 34 -10 36 -19 q 38 -25 44 -21 q 48 -18 57 -8 z m -37 -42 q -34 2 -5 77 q 23 152 67 232 q 98 288 129 338 q 161 387 178 404 q 187 413 191 416 q 196 419 204 421 q 215 423 227 422 q 240 420 247 415 q 256 409 249 393 q 242 378 202 313 q 175 268 148 222 q 120 176 104 147 q 87 117 89 117 q 90 117 106 138 q 148 189 164 197 q 181 205 205 198 q 230 191 237 169 q 244 146 232 112 q 211 50 159 -2 q 132 -30 109 -41 q 87 -52 60 -52 q 38 -52 29 -48 q 19 -44 18 -44 q 16 -44 13 -53 q 10 -62 5 -68 q 2 -72 -1 -73 q -4 -74 -13 -75 q -26 -75 -31 -73 q -36 -70 -37 -64 q -38 -58 -37 -42 z"},"%":{"x_min":0,"x_max":461,"ha":461,"o":"m 144 325 q 176 340 194 368 q 212 396 204 416 q 200 424 196 424 q 191 424 175 416 q 145 401 125 370 q 106 340 113 320 q 116 314 120 315 q 124 316 144 325 z m 272 -37 q 322 -7 340 31 q 344 41 347 52 q 349 62 347 66 q 346 67 337 60 q 328 54 317 44 q 306 34 300 27 q 268 -10 257 -34 q 253 -45 257 -45 q 258 -45 272 -37 z m 43 -78 q 16 -72 6 -57 q -13 -29 28 40 q 70 108 162 202 q 211 252 256 291 q 302 330 363 376 l 411 412 l 347 415 q 283 417 264 419 q 247 420 247 418 q 247 418 247 416 q 264 372 218 325 q 209 316 201 310 q 194 305 182 300 q 163 290 148 287 q 133 284 113 285 q 71 288 55 307 q 39 326 54 356 q 63 373 84 392 q 105 411 128 421 q 138 426 154 431 q 170 435 175 435 q 180 435 179 439 q 179 443 185 446 q 190 448 196 448 q 202 447 228 441 q 260 434 370 431 q 423 430 437 428 q 451 426 457 420 q 461 417 462 414 q 462 411 457 404 q 451 398 441 389 q 431 380 410 362 q 328 291 270 234 q 212 177 162 118 q 117 64 91 21 q 65 -22 65 -44 l 65 -54 l 74 -53 q 102 -48 157 -22 q 196 -3 216 10 q 236 23 255 42 q 288 74 307 87 q 326 101 340 102 q 350 104 359 100 q 367 96 368 91 q 368 86 374 85 q 380 83 387 75 q 394 67 396 60 q 397 51 394 38 q 390 24 383 13 q 376 1 358 -18 q 340 -37 327 -46 q 283 -78 242 -76 q 196 -73 197 -46 q 197 -36 196 -36 q 196 -36 174 -47 q 143 -62 114 -72 q 84 -81 66 -80 q 55 -80 43 -78 z"},"m":{"x_min":0,"x_max":436,"ha":436,"o":"m 144 -75 q 135 -71 131 -67 q 126 -62 124 -52 q 117 -28 128 21 q 139 69 162 118 q 176 146 175 148 q 174 148 160 134 q 146 120 129 102 q 112 84 104 75 q 88 54 68 24 q 48 -6 35 -30 q 19 -60 19 -62 q 19 -64 14 -69 q 8 -74 0 -73 q -8 -73 -15 -68 q -30 -58 -29 -24 q -28 11 -10 65 q -2 90 20 136 q 42 183 47 185 q 57 190 73 188 q 90 186 103 178 q 113 172 113 166 q 113 160 102 143 q 72 96 46 43 q 24 -4 29 0 q 29 1 30 2 q 33 6 48 30 q 70 67 98 100 q 125 133 149 153 q 163 164 182 175 q 200 186 209 187 q 217 188 231 185 q 245 181 253 176 q 264 169 263 163 q 263 157 253 141 q 234 111 210 67 q 186 22 180 6 q 179 0 180 1 q 181 2 198 30 q 221 67 248 100 q 276 133 299 153 q 314 164 332 175 q 351 186 360 187 q 368 188 381 185 q 395 181 404 176 q 414 169 414 163 q 414 157 403 141 q 371 91 346 39 q 321 -14 313 -48 l 312 -56 l 317 -52 q 328 -44 363 -4 q 399 36 428 72 q 438 86 442 90 q 447 94 450 94 q 456 94 456 91 q 458 87 410 28 q 363 -32 339 -56 q 326 -70 318 -74 q 311 -78 302 -77 q 282 -73 275 -54 q 267 -32 278 18 q 289 68 313 118 q 326 146 326 148 q 325 148 310 134 q 296 120 279 102 q 262 84 255 75 q 212 21 168 -62 q 161 -75 158 -77 q 155 -78 144 -75 z"},"#":{"x_min":0,"x_max":446,"ha":446,"o":"m 258 181 q 270 212 270 214 q 270 215 265 215 q 260 215 252 215 q 243 215 233 214 q 196 213 193 210 q 192 208 181 180 q 170 153 170 150 q 170 149 208 150 l 247 150 z m 109 10 q 100 13 97 19 q 95 25 97 41 q 100 60 106 87 q 113 114 112 115 q 111 116 80 114 q 48 111 39 112 q 25 115 12 123 q 0 130 0 137 q 0 140 7 144 q 14 148 70 150 l 126 152 l 135 178 q 144 204 146 207 q 146 208 145 208 q 144 209 140 209 q 136 209 130 209 q 124 209 113 208 q 76 207 57 210 q 38 214 32 224 q 24 235 48 240 q 68 245 118 246 l 163 248 l 179 281 q 209 340 227 359 q 235 368 242 368 q 257 368 257 363 q 257 360 232 304 q 208 248 209 248 q 209 247 246 246 l 283 245 l 300 278 q 330 341 349 360 q 357 368 364 368 q 378 368 378 363 q 378 360 353 302 q 328 244 328 243 q 329 243 382 238 q 435 233 440 230 q 454 224 432 222 q 419 220 390 220 q 357 220 337 219 l 317 217 l 306 188 q 295 159 293 153 l 292 147 l 330 147 q 411 147 418 140 q 422 136 419 134 q 417 132 351 128 q 285 125 284 124 q 282 122 276 98 q 269 73 266 58 q 261 37 261 25 q 261 16 260 14 q 259 12 255 10 q 244 6 230 11 q 217 16 217 25 q 217 32 221 55 q 226 79 230 96 q 238 121 236 122 q 235 123 198 121 l 160 120 l 158 110 q 152 94 146 69 q 141 45 140 32 q 139 18 138 15 q 137 12 134 10 q 124 6 109 10 z"},",":{"x_min":0,"x_max":68,"ha":68,"o":"m 3 -76 q -3 -74 3 -71 q 4 -70 6 -70 q 10 -69 20 -61 q 29 -54 29 -51 q 29 -50 21 -47 q 6 -41 6 -23 q 6 -17 8 -14 q 9 -10 13 -6 q 20 0 29 1 q 39 3 48 0 q 56 -3 63 -10 q 69 -17 69 -25 q 69 -32 65 -38 q 62 -44 52 -54 q 39 -67 25 -73 q 12 -80 3 -76 z"},"n":{"x_min":0,"x_max":293,"ha":293,"o":"m 147 -74 q 138 -71 134 -66 q 130 -61 126 -51 q 120 -28 131 21 q 142 70 166 119 q 179 147 178 148 q 177 149 163 135 q 148 121 132 103 q 115 85 107 75 q 90 54 69 22 q 48 -10 34 -37 q 17 -69 13 -71 q 8 -74 0 -73 q -8 -72 -14 -68 q -30 -57 -29 -23 q -28 11 -10 66 q -2 90 21 137 q 43 183 48 186 q 58 191 74 189 q 90 186 104 178 q 114 172 114 166 q 114 160 103 144 q 73 96 47 43 q 40 28 34 15 q 28 1 25 -7 q 22 -15 22 -15 q 23 -15 35 4 q 62 52 93 91 q 124 130 152 153 q 166 165 185 175 q 204 186 212 188 q 220 189 234 185 q 248 182 256 176 q 266 170 266 164 q 266 158 256 142 q 223 91 198 39 q 174 -13 166 -48 l 164 -55 l 170 -51 q 180 -44 216 -3 q 252 37 280 73 q 291 87 295 91 q 300 95 303 95 q 308 94 309 92 q 310 88 264 29 q 218 -29 193 -54 q 171 -78 160 -77 q 156 -77 147 -74 z"},"h":{"x_min":0,"x_max":281,"ha":281,"o":"m 136 -76 q 127 -73 123 -68 q 118 -64 116 -53 q 109 -30 120 19 q 131 68 154 117 q 168 145 167 146 q 166 147 152 133 q 138 119 121 101 q 104 83 96 73 q 80 52 58 20 q 37 -12 23 -39 q 12 -60 7 -66 q 3 -72 -2 -74 q -13 -79 -25 -77 q -38 -74 -40 -67 q -44 -50 -32 -4 q -21 42 0 94 q 32 173 88 272 q 144 370 176 402 q 184 411 189 414 q 193 417 202 419 q 213 421 225 420 q 237 418 244 413 q 254 407 246 391 q 239 375 197 307 q 92 136 64 72 q 58 60 59 60 q 60 60 64 65 q 67 69 78 83 q 126 148 175 174 q 193 184 201 185 q 209 186 223 183 q 237 180 245 174 q 256 168 255 162 q 255 156 245 140 q 212 89 188 37 q 163 -15 154 -50 l 153 -57 l 159 -53 q 169 -46 205 -5 q 241 35 269 71 q 280 84 284 89 q 288 93 292 92 q 297 92 298 90 q 299 86 253 27 q 206 -31 182 -56 q 160 -80 149 -80 q 145 -79 136 -76 z"},"z":{"x_min":0,"x_max":300,"ha":300,"o":"m -24 -24 q -26 -19 -16 -7 q -6 6 24 35 q 78 90 147 142 q 176 164 176 164 q 176 165 148 165 q 100 166 76 180 q 66 186 64 189 q 61 192 64 194 q 67 196 70 196 q 74 195 83 190 q 108 179 142 179 q 157 179 180 184 q 203 188 217 194 q 234 200 244 202 q 254 203 265 201 q 282 198 291 189 q 300 180 293 173 q 289 168 246 139 q 149 72 92 20 l 74 3 l 122 2 q 158 1 191 -3 q 224 -6 232 -9 q 242 -14 226 -15 q 214 -16 183 -17 q 136 -17 112 -22 q 88 -26 70 -38 q 60 -44 53 -46 q 44 -49 31 -49 q 18 -48 7 -45 q -4 -41 -13 -35 q -23 -29 -24 -24 z"},"B":{"x_min":0,"x_max":688,"ha":688,"o":"m 156 -105 q 99 -99 60 -82 q 20 -65 6 -41 q 2 -34 1 -30 q 0 -26 0 -17 q 2 2 15 15 q 28 28 58 41 q 72 47 76 48 q 80 49 84 47 q 90 44 91 42 q 91 39 78 30 q 25 -8 47 -41 q 54 -52 72 -57 q 89 -63 121 -64 q 167 -66 235 -54 q 303 -42 362 -20 q 426 3 479 34 q 532 64 564 96 q 592 124 597 142 q 602 160 583 170 q 548 188 445 186 l 397 186 l 375 140 q 324 39 319 -13 q 317 -27 314 -30 q 311 -32 298 -31 q 286 -29 276 -25 q 243 -11 247 28 q 253 85 306 197 q 359 309 416 385 q 433 408 441 415 q 449 422 459 424 q 475 428 496 420 q 518 413 523 403 q 526 396 519 382 q 512 368 482 322 q 416 222 418 220 q 419 218 444 227 q 497 244 538 274 q 579 304 598 337 q 616 371 607 398 q 596 431 540 439 q 484 447 405 426 q 366 417 326 400 q 286 382 257 363 q 239 351 220 332 q 200 314 193 302 l 187 290 l 193 286 q 201 282 199 275 q 198 268 189 268 q 183 268 175 273 q 166 278 164 282 q 158 294 165 311 q 173 328 192 348 q 243 398 338 431 q 432 464 517 460 q 572 457 611 439 q 649 420 664 389 q 668 379 670 374 q 671 368 671 356 q 671 338 667 326 q 664 314 656 300 q 640 272 610 249 q 580 226 543 211 l 521 202 l 533 201 q 560 198 587 187 q 613 177 627 164 q 669 127 632 66 q 624 51 598 26 q 573 2 552 -12 q 500 -47 430 -70 q 360 -94 281 -103 q 261 -106 216 -106 q 172 -107 156 -105 z"},"K":{"x_min":0,"x_max":629,"ha":629,"o":"m 300 -115 q 266 -104 261 -83 q 258 -66 267 -27 q 276 12 295 62 l 306 91 l 297 100 q 281 117 270 136 q 259 156 259 168 q 259 174 264 179 q 270 186 286 178 q 292 174 304 162 q 316 150 320 143 l 324 135 l 345 176 q 382 248 423 306 q 464 363 474 380 q 484 396 482 402 q 481 404 475 405 q 468 405 447 404 q 376 402 298 376 q 219 351 155 310 q 131 295 105 271 q 79 247 67 229 q 46 199 45 171 q 44 155 47 145 q 50 135 58 124 q 64 116 77 107 q 90 98 104 92 q 110 90 114 88 q 118 86 120 85 q 122 83 122 81 q 123 80 122 78 q 119 75 113 75 q 107 76 94 80 q 70 88 49 102 q 29 115 19 128 q 9 141 5 152 q 1 162 0 178 q 0 196 3 210 q 7 224 18 241 q 47 290 117 336 q 187 381 274 408 q 361 436 438 436 q 502 436 532 413 q 546 402 550 389 q 553 377 546 359 q 539 340 519 307 q 473 231 451 191 q 430 152 408 104 q 404 94 405 94 q 406 94 418 112 q 473 195 556 277 q 640 358 718 408 q 766 437 804 451 q 841 464 857 458 q 870 452 860 447 q 854 444 842 443 q 827 441 814 436 q 802 432 777 419 q 698 380 616 307 q 533 234 466 145 q 448 121 426 88 q 403 55 403 52 q 403 50 418 39 q 434 28 456 14 q 477 1 522 -22 q 568 -44 590 -52 q 638 -70 670 -77 q 682 -79 699 -80 q 716 -81 719 -79 q 721 -78 725 -82 q 734 -92 714 -94 q 690 -96 648 -86 q 598 -73 531 -44 q 464 -16 410 16 q 389 28 388 28 q 388 27 374 0 q 364 -20 359 -38 q 353 -56 350 -80 q 346 -104 345 -108 q 344 -112 339 -114 q 333 -117 321 -117 q 309 -118 300 -115 z"},"R":{"x_min":0,"x_max":736,"ha":736,"o":"m 694 -129 q 620 -123 518 -79 q 416 -35 346 22 q 345 23 343 24 q 334 32 332 29 q 329 27 322 5 q 320 0 319 -3 q 299 -62 298 -93 q 298 -106 296 -109 q 294 -112 283 -116 q 268 -120 254 -115 q 240 -110 235 -99 q 225 -80 231 -31 q 238 18 257 74 q 264 94 264 97 q 264 100 254 116 q 237 140 233 158 q 229 175 237 182 q 242 186 249 186 q 255 186 269 180 q 282 174 286 170 q 289 166 291 166 q 294 166 312 203 q 343 266 377 315 q 412 365 434 378 q 444 384 462 384 q 492 386 497 372 q 499 366 492 351 q 485 336 458 288 q 421 224 391 165 q 362 107 364 105 q 366 103 396 106 q 426 109 442 113 q 504 126 558 158 q 612 191 648 236 q 684 279 691 320 q 699 361 676 383 q 651 407 572 416 q 550 419 498 418 q 447 416 421 413 q 326 400 244 369 q 162 338 107 295 q 52 252 35 205 q 17 157 37 116 q 46 96 60 87 q 73 77 84 82 q 91 84 98 81 q 110 74 102 70 q 96 66 85 66 q 72 66 57 75 q 42 83 30 96 q 0 128 0 174 q 0 221 33 268 q 66 314 129 354 q 191 395 276 422 q 361 450 448 458 q 476 461 522 460 q 568 459 588 455 q 687 437 742 384 q 757 369 766 356 q 775 343 782 326 q 787 312 787 289 q 788 267 783 251 q 770 206 731 166 q 692 126 634 99 q 542 56 427 58 l 388 58 l 396 51 q 419 32 457 5 q 496 -22 530 -42 q 594 -79 648 -96 q 702 -114 734 -109 q 745 -107 749 -107 q 753 -107 756 -110 q 763 -114 762 -118 q 761 -122 753 -124 q 746 -126 729 -128 q 713 -131 708 -130 q 703 -130 694 -129 z"},"T":{"x_min":0,"x_max":378,"ha":378,"o":"m 202 -112 q 186 -108 179 -96 q 169 -76 176 -27 q 182 22 204 85 q 223 140 255 204 q 309 314 358 364 q 376 382 374 382 q 370 382 332 373 q 294 363 275 358 q 151 322 96 283 q 86 276 84 274 q 82 271 84 266 q 86 254 72 254 q 56 254 33 269 q 18 279 9 293 q 0 306 0 318 q 0 340 32 363 q 65 386 123 407 q 181 427 255 440 q 342 456 449 459 q 555 462 638 452 q 732 439 752 420 q 760 414 758 411 q 756 409 746 411 q 736 413 678 413 q 563 413 446 395 l 415 390 l 426 387 q 433 385 438 380 q 443 376 443 371 q 443 363 402 292 q 321 150 282 52 q 244 -44 242 -89 q 242 -106 239 -108 q 233 -112 222 -113 q 211 -114 202 -112 z"},"P":{"x_min":0,"x_max":728,"ha":728,"o":"m 258 -116 q 244 -112 237 -103 q 230 -94 229 -74 q 227 -50 235 -9 q 243 33 258 76 q 263 91 264 95 q 264 100 262 103 q 258 108 259 113 q 260 117 266 119 q 271 120 275 127 q 279 133 292 163 q 329 244 370 305 q 411 366 437 380 q 444 384 462 384 q 492 386 497 372 q 499 366 492 351 q 485 336 458 288 q 421 224 391 165 q 362 107 364 105 q 366 103 396 106 q 426 109 442 113 q 504 126 558 158 q 612 191 648 236 q 684 279 691 320 q 699 361 676 383 q 651 407 572 416 q 550 419 498 418 q 447 416 421 413 q 326 400 244 369 q 162 338 107 295 q 52 252 35 205 q 17 157 37 116 q 46 96 60 87 q 73 77 84 82 q 91 84 98 81 q 110 74 102 70 q 96 66 85 66 q 72 66 57 75 q 42 83 30 96 q 0 128 0 174 q 0 221 33 268 q 66 314 129 354 q 191 395 276 422 q 361 450 448 458 q 476 461 522 460 q 568 459 588 455 q 687 437 742 384 q 757 369 766 356 q 775 343 782 326 q 787 312 787 289 q 788 267 783 251 q 775 224 757 197 q 738 171 713 150 q 670 113 614 90 q 557 67 493 60 q 471 57 436 58 q 400 58 378 61 q 354 64 349 65 q 346 65 344 61 q 342 57 336 44 q 320 5 310 -34 q 299 -72 298 -93 q 298 -109 294 -111 q 288 -115 278 -117 q 267 -118 258 -116 z"},"|":{"x_min":0,"x_max":44,"ha":44,"o":"m 0 457 q 0 460 2 462 q 4 464 7 464 q 12 464 28 461 q 43 458 43 455 l 44 -180 q 44 -182 28 -185 q 13 -187 7 -187 q 4 -187 2 -185 q 0 -183 0 -180 z"},"t":{"x_min":0,"x_max":162,"ha":162,"o":"m -5 -82 q -17 -75 -23 -62 q -29 -50 -29 -28 q -29 20 2 97 q 12 124 35 171 q 58 219 76 250 q 95 283 95 285 q 95 286 50 286 q 6 286 -3 288 q -11 290 -18 297 q -26 303 -28 309 q -30 315 -26 318 q -22 321 71 318 l 116 316 l 128 335 q 176 407 198 416 q 210 420 225 418 q 240 416 249 408 q 255 402 250 387 q 244 372 222 336 l 208 314 l 242 312 q 276 310 333 308 q 356 307 369 306 q 381 306 389 304 q 397 303 399 301 q 401 299 401 296 q 401 293 384 292 q 368 290 326 290 q 278 290 235 288 l 192 287 l 173 256 q 49 46 28 -39 q 24 -55 25 -60 q 26 -64 28 -62 q 30 -61 39 -54 q 76 -23 134 50 q 168 93 171 93 q 174 93 177 91 q 180 89 176 83 q 172 76 144 39 q 70 -60 40 -80 q 34 -84 30 -85 q 25 -86 17 -86 q 4 -86 -5 -82 z"},"M":{"x_min":0,"x_max":862,"ha":862,"o":"m 796 -111 q 774 -106 754 -88 q 733 -71 721 -48 q 702 -9 707 49 q 712 108 741 178 q 790 294 841 362 q 854 379 857 384 q 862 390 840 373 q 831 366 818 355 q 784 326 741 281 q 698 236 660 189 q 631 153 599 106 q 566 58 554 34 l 548 24 l 536 24 q 530 25 528 26 q 525 26 523 28 q 521 30 521 36 q 521 41 522 47 q 522 54 524 66 q 547 206 629 345 q 632 349 619 337 q 581 302 541 258 q 539 256 538 254 q 435 138 374 26 q 357 -7 350 -55 q 350 -56 350 -57 q 347 -79 345 -83 q 344 -88 339 -90 q 338 -90 338 -90 q 327 -96 303 -91 q 280 -85 269 -74 q 258 -62 261 -32 q 266 8 288 67 q 309 127 341 192 q 380 270 423 330 q 464 388 474 404 q 484 421 482 426 q 481 428 475 429 q 468 429 447 428 q 376 426 298 401 q 219 375 155 334 q 131 319 105 295 q 79 271 67 254 q 46 223 45 195 q 44 179 47 169 q 50 160 58 148 q 64 140 77 131 q 90 122 104 117 q 110 114 114 113 q 118 111 120 109 q 122 107 122 105 q 123 104 122 102 q 119 99 113 99 q 107 100 94 104 q 70 112 49 126 q 29 139 19 152 q 9 166 5 176 q 1 186 0 202 q 0 220 3 234 q 7 248 18 265 q 47 315 117 360 q 187 405 274 433 q 361 460 438 460 q 502 460 532 437 q 546 426 550 414 q 553 401 546 383 q 539 364 519 332 q 442 206 424 162 q 420 152 420 152 q 421 152 449 190 q 515 278 603 366 q 677 440 698 449 q 708 454 722 453 q 736 453 746 448 q 752 445 754 443 q 756 441 757 436 q 758 428 750 413 q 742 397 722 364 q 649 249 615 186 q 610 176 603 162 q 596 148 592 138 q 587 128 588 128 q 588 128 605 151 q 676 250 756 329 q 836 408 896 436 q 908 442 913 443 q 918 444 924 444 q 934 442 940 438 q 946 433 946 427 q 946 416 933 388 q 921 360 884 286 q 840 201 825 166 q 809 131 796 92 q 783 52 780 33 q 776 14 776 -17 q 776 -41 777 -49 q 778 -57 781 -66 q 792 -92 811 -98 q 830 -103 830 -108 q 830 -112 820 -113 q 809 -114 796 -111 z"},"g":{"x_min":0,"x_max":240,"ha":240,"o":"m -16 -170 q 0 -160 22 -128 q 32 -112 32 -110 q 31 -108 17 -108 q -18 -108 -37 -116 q -48 -122 -52 -131 q -56 -141 -50 -153 q -48 -160 -40 -168 q -33 -176 -30 -176 q -26 -176 -16 -170 z m -71 -180 q -79 -172 -85 -161 q -91 -150 -91 -141 q -91 -134 -87 -124 q -80 -110 -59 -103 q -39 -96 4 -95 l 42 -94 l 50 -77 q 53 -72 69 -44 q 84 -16 89 -6 l 92 3 l 83 -8 q 53 -43 37 -51 q 21 -59 -2 -52 q -27 -44 -34 -22 q -41 0 -29 34 q -8 96 44 148 q 70 175 92 186 q 115 198 141 198 q 174 198 188 186 q 193 181 194 175 q 194 168 191 157 q 184 136 174 141 q 168 144 169 150 q 170 156 167 164 l 164 172 l 152 161 q 132 142 106 104 q 80 66 60 26 q 43 -7 45 -9 q 47 -10 72 18 q 93 41 120 78 q 138 101 144 109 q 151 116 157 118 q 165 122 171 122 q 176 122 187 118 q 209 112 206 94 q 205 86 189 45 q 172 3 155 -35 q 132 -87 110 -120 q 89 -153 72 -169 q 55 -185 34 -194 q 24 -199 17 -201 q 11 -202 -4 -202 q -26 -203 -38 -199 q -50 -195 -56 -191 q -62 -188 -71 -180 z"},"j":{"x_min":0,"x_max":118,"ha":118,"o":"m 96 170 q 100 166 101 163 q 102 160 101 154 q 100 146 72 80 q 44 13 24 -32 q -16 -118 -44 -162 q -73 -206 -102 -214 q -134 -220 -147 -216 q -160 -212 -165 -204 q -169 -195 -166 -196 q -160 -196 -145 -183 q -130 -170 -115 -147 q -108 -138 -99 -122 q -90 -105 -85 -93 l -79 -82 q -64 -50 -41 0 q -20 49 8 106 q 36 164 41 170 q 50 181 68 181 q 85 180 96 170 z m 112 323 q 128 323 138 318 q 151 310 148 297 q 146 290 129 258 q 112 227 109 226 q 97 219 83 224 q 74 227 69 233 q 66 237 65 241 q 64 245 65 256 q 67 290 88 311 q 94 318 98 320 q 102 323 107 323 q 110 323 112 323 z"},"i":{"x_min":0,"x_max":135,"ha":135,"o":"m 102 224 q 94 227 88 233 q 85 237 84 240 q 84 244 84 256 q 86 289 107 310 q 114 318 117 320 q 121 322 126 322 q 146 323 157 317 q 170 310 167 296 q 165 289 148 258 q 131 226 128 225 q 116 219 102 224 z m -8 -75 q -17 -72 -21 -67 q -26 -62 -28 -52 q -36 -26 -23 26 q -10 77 20 137 q 42 180 46 182 q 55 188 72 185 q 88 183 101 175 q 112 169 111 163 q 111 157 101 140 q 68 90 44 38 q 19 -14 10 -49 l 9 -56 l 15 -52 q 25 -45 61 -4 q 97 36 125 72 q 136 86 140 90 q 144 94 148 94 q 153 93 154 90 q 155 86 109 28 q 62 -30 38 -56 q 16 -79 5 -78 q 1 -78 -8 -75 z"},"y":{"x_min":0,"x_max":238,"ha":238,"o":"m -19 -170 q -3 -160 18 -128 q 29 -112 29 -110 q 28 -108 14 -108 q -20 -108 -40 -116 q -51 -121 -55 -131 q -58 -141 -53 -153 q -50 -160 -43 -168 q -36 -176 -32 -176 q -28 -176 -19 -170 z m -74 -180 q -82 -172 -88 -161 q -94 -150 -94 -141 q -94 -133 -90 -124 q -82 -109 -62 -103 q -42 -96 1 -95 l 39 -94 l 47 -78 q 56 -60 68 -33 q 81 -5 80 -4 q 80 -4 78 -6 q 76 -9 73 -13 q 70 -17 67 -22 q 54 -40 42 -56 q 29 -72 23 -76 q 12 -85 -8 -82 q -28 -80 -40 -69 q -48 -62 -50 -52 q -52 -42 -49 -27 q -46 -10 -38 8 q -30 26 -10 68 q 14 116 22 135 q 29 151 34 171 q 39 191 38 196 q 36 203 47 205 q 63 208 80 199 q 94 192 99 183 q 104 173 104 156 q 104 134 94 108 q 85 82 59 26 q 43 -7 44 -7 q 45 -7 50 -1 q 61 11 94 55 q 127 99 136 115 q 146 131 152 137 q 158 142 166 144 q 175 146 186 142 q 198 139 204 133 q 208 129 208 126 q 209 124 208 118 q 207 109 191 68 q 174 26 157 -12 q 121 -93 90 -137 q 60 -181 31 -194 q 21 -199 14 -200 q 8 -202 -6 -202 q -29 -203 -41 -199 q -53 -195 -59 -191 q -65 -188 -74 -180 z"},"@":{"x_min":0,"x_max":434,"ha":434,"o":"m 165 3 q 118 7 77 27 q 48 42 29 64 q 10 86 4 113 q -4 144 6 183 q 16 222 40 259 q 66 298 103 326 q 140 353 181 366 q 222 378 266 375 q 310 372 350 352 q 392 332 413 301 q 426 281 430 266 q 434 251 434 223 q 434 201 433 194 q 432 186 428 172 q 412 128 377 96 q 342 63 303 58 q 260 52 247 73 q 244 78 243 84 q 242 89 242 104 q 242 128 246 142 q 246 146 247 150 q 248 154 248 156 q 248 158 248 158 q 248 158 230 135 q 185 80 168 76 q 154 72 139 75 q 123 78 114 87 q 105 94 102 105 q 98 115 100 132 q 101 162 123 203 q 146 244 178 276 q 200 299 221 311 q 241 322 264 326 q 276 327 291 326 q 306 324 314 320 q 326 314 328 305 q 330 296 324 282 q 320 274 318 272 q 316 270 311 271 q 306 271 305 273 q 304 275 304 283 q 304 297 300 298 q 297 299 286 288 q 262 265 231 217 q 200 170 184 133 l 176 114 l 196 134 q 227 166 262 215 q 274 232 280 238 q 286 245 292 247 q 305 253 323 250 q 342 246 347 238 q 349 233 346 222 q 342 212 329 186 q 273 74 289 70 q 290 70 292 70 q 303 73 318 83 q 333 93 345 104 q 390 146 404 197 q 408 213 407 235 q 407 256 402 270 q 393 299 371 319 q 350 340 318 351 q 306 355 297 357 q 289 358 268 358 q 248 359 239 358 q 230 358 216 354 q 165 341 123 306 q 80 271 56 222 q 25 160 36 110 q 47 58 97 34 q 117 24 133 21 q 149 18 180 16 q 253 14 299 37 q 315 46 321 41 q 324 38 318 32 q 308 22 282 14 q 257 6 223 3 q 202 1 195 1 q 188 1 165 3 z"},"p":{"x_min":0,"x_max":310,"ha":310,"o":"m -69 -237 q -76 -234 -79 -226 q -81 -219 -81 -200 q -80 -144 -53 -52 q -26 40 14 121 q 34 162 49 183 q 64 204 76 210 q 83 213 94 213 q 121 213 121 194 q 121 188 116 170 q 111 153 105 140 q 102 132 99 124 q 96 117 94 113 q 93 109 93 109 q 94 109 104 121 q 125 149 148 171 q 171 192 186 198 q 198 203 212 201 q 227 200 239 194 q 268 177 273 133 q 278 89 256 43 q 240 10 212 -18 q 183 -47 151 -64 q 124 -77 97 -78 q 69 -79 55 -67 q 49 -62 48 -56 q 48 -51 52 -39 q 55 -29 59 -27 q 64 -24 71 -26 q 77 -28 79 -31 q 81 -34 81 -40 q 81 -46 86 -42 q 90 -39 97 -32 q 131 4 162 63 q 194 123 201 164 q 204 180 202 181 q 199 184 179 171 q 150 152 115 109 q 81 66 59 19 q 40 -20 14 -88 q -13 -156 -32 -213 q -36 -226 -38 -231 q -41 -236 -44 -237 q -49 -239 -56 -239 q -64 -239 -69 -237 z"},"X":{"x_min":0,"x_max":451,"ha":451,"o":"m 488 -114 q 453 -106 417 -82 q 382 -58 356 -24 q 346 -10 334 14 q 321 38 315 57 q 302 97 298 138 q 296 155 295 155 q 293 155 246 111 q 152 25 93 -22 q 34 -69 -12 -94 q -30 -104 -48 -110 q -66 -116 -75 -115 q -82 -114 -86 -111 q -89 -109 -86 -107 q -83 -104 -75 -104 q -64 -104 -34 -87 q -5 -71 30 -45 q 101 8 240 139 l 294 190 l 296 253 q 298 344 289 377 q 281 408 268 420 q 255 433 230 432 q 214 432 201 429 q 188 426 171 418 q 116 393 81 340 q 46 287 46 229 q 47 175 78 143 q 100 122 126 118 q 135 117 142 114 q 148 111 148 108 q 148 102 136 102 q 124 101 108 106 q 73 117 45 147 q 17 176 8 212 q 4 228 4 253 q 4 278 9 295 q 18 330 41 363 q 63 396 93 419 q 106 428 129 440 q 151 451 165 455 q 190 462 217 460 q 244 458 265 447 q 305 428 327 389 q 350 350 358 286 q 362 256 362 255 q 363 254 395 283 q 539 411 616 449 q 630 456 636 458 q 642 459 652 459 q 666 459 670 455 q 674 452 671 448 q 668 445 660 444 q 644 440 601 414 q 559 388 517 354 q 484 328 439 288 q 393 248 367 224 q 364 221 364 213 q 364 206 366 174 q 370 90 380 43 q 391 -4 413 -38 q 432 -66 461 -82 q 491 -98 524 -98 q 543 -98 546 -105 q 549 -110 540 -114 q 532 -117 518 -117 q 504 -117 488 -114 z"},"*":{"x_min":0,"x_max":125,"ha":125,"o":"m 33 297 q 31 298 31 303 q 31 307 34 321 q 37 343 36 344 q 35 345 26 335 q 19 327 15 325 q 11 323 6 326 q 3 326 4 328 q 5 330 9 336 q 16 346 26 359 q 37 372 36 374 q 34 375 21 375 q 7 375 3 380 q -1 384 1 386 q 2 387 20 387 q 38 386 37 388 q 37 390 34 403 q 31 415 31 431 q 31 447 34 451 q 37 456 42 454 q 48 453 48 448 q 49 439 51 428 q 54 417 55 417 q 56 417 64 434 q 71 450 75 455 q 80 461 84 460 q 89 458 89 456 q 90 454 87 447 q 83 438 78 424 l 73 410 l 82 418 q 83 419 84 420 q 109 441 114 444 q 119 447 124 443 q 124 443 125 443 q 125 441 126 441 q 127 440 123 436 q 120 432 115 427 q 111 422 100 411 q 72 382 74 379 q 75 377 79 377 q 92 377 104 369 q 110 365 108 362 q 107 362 89 365 q 72 368 71 367 q 70 366 82 341 q 95 315 95 314 q 95 313 88 313 q 83 313 79 317 q 74 321 63 335 l 54 347 l 49 325 q 44 303 44 299 q 44 296 41 295 q 37 295 33 297 z"},"Y":{"x_min":0,"x_max":661,"ha":661,"o":"m 330 -101 q 398 -84 457 5 q 465 16 475 31 q 484 46 490 56 q 496 66 496 66 q 490 66 452 61 q 415 55 400 52 q 335 38 292 13 q 250 -13 241 -44 q 235 -64 245 -79 q 254 -94 276 -101 q 286 -104 302 -104 q 318 -104 330 -101 z m 298 -124 q 266 -120 244 -108 q 222 -96 213 -80 q 208 -71 209 -58 q 209 -45 214 -34 q 234 8 303 38 q 372 67 478 78 l 505 80 l 526 116 q 559 172 558 172 q 556 172 541 158 q 468 91 430 83 q 420 81 415 81 q 410 81 402 83 q 385 88 371 99 q 356 110 350 122 q 344 137 347 160 q 351 184 363 209 q 377 236 398 264 q 418 292 462 342 q 494 380 507 398 q 521 416 524 426 q 526 436 520 439 q 514 441 484 440 q 410 437 323 403 q 235 370 164 316 q 106 273 71 222 q 36 172 36 132 q 36 119 39 110 q 41 101 48 91 q 63 69 94 64 q 106 62 112 59 q 117 56 115 52 q 114 48 102 48 q 72 49 43 67 q 14 85 5 110 q -4 136 5 171 q 14 206 41 242 q 78 292 142 337 q 206 383 283 415 q 360 446 435 457 q 458 460 488 460 q 518 459 531 455 q 551 449 561 437 q 572 426 572 411 q 572 394 559 370 q 546 346 509 292 q 465 230 444 193 q 424 156 418 132 q 414 118 416 109 q 417 101 423 100 q 436 98 480 135 q 523 172 573 226 q 623 280 652 323 q 691 380 705 397 q 719 413 732 416 q 749 420 766 413 q 782 406 782 395 q 782 386 771 365 q 759 344 713 272 q 679 218 641 158 q 604 98 600 92 l 595 86 l 634 87 q 658 88 666 88 q 674 87 677 85 q 682 82 680 81 q 679 80 645 78 q 611 75 599 74 l 587 72 l 574 52 q 511 -42 460 -80 q 426 -106 382 -117 q 339 -129 298 -124 z"},"c":{"x_min":0,"x_max":186,"ha":186,"o":"m 5 -86 q -6 -84 -15 -77 q -24 -70 -30 -61 q -38 -47 -36 -19 q -35 9 -25 39 q -9 87 21 127 q 51 167 87 189 q 122 211 154 208 q 178 206 186 195 q 192 187 188 169 q 184 151 175 141 q 170 136 167 135 q 165 134 159 134 q 149 136 147 139 q 146 143 150 152 q 155 164 156 171 l 158 178 l 152 172 q 145 166 129 146 q 89 97 56 35 q 22 -27 18 -59 l 16 -70 l 25 -67 q 49 -57 85 -24 q 122 9 164 60 q 182 82 187 87 q 193 92 198 92 q 205 92 205 90 q 205 89 191 71 q 149 15 104 -30 q 59 -74 36 -82 q 26 -86 20 -86 q 14 -87 5 -86 z"},"!":{"x_min":0,"x_max":251,"ha":251,"o":"m 18 -86 q 12 -85 7 -82 q 4 -79 3 -77 q 2 -74 1 -66 q -2 -42 10 -25 q 16 -15 22 -14 q 36 -10 44 -13 q 54 -16 54 -26 q 53 -32 46 -56 q 38 -80 36 -82 q 29 -88 18 -86 z m 25 8 q 22 10 21 13 q 20 16 20 25 q 20 48 31 97 q 42 146 58 197 q 83 274 120 350 q 158 426 182 448 q 192 458 202 459 q 224 462 241 454 q 248 450 250 448 q 253 445 252 438 q 250 431 246 422 q 241 414 231 395 q 165 278 93 100 q 70 41 64 27 q 58 13 54 8 q 50 4 40 4 q 30 4 25 8 z"},"/":{"x_min":0,"x_max":297,"ha":297,"o":"m 0 -30 q -1 -28 13 -4 q 26 21 88 131 q 265 446 273 452 q 277 455 285 455 q 292 455 296 452 q 298 449 297 446 q 297 444 292 434 q 274 399 109 125 q 42 12 27 -10 q 13 -33 8 -33 q 2 -33 0 -30 z"},"[":{"x_min":0,"x_max":316,"ha":316,"o":"m 17 -57 q 0 -48 0 -44 q 0 -42 20 4 q 40 51 92 173 q 190 402 206 434 q 210 442 211 445 q 211 448 209 452 q 206 458 207 459 q 208 461 259 459 q 309 458 313 456 q 317 454 317 451 q 317 448 308 447 q 298 446 264 443 q 234 440 230 439 q 226 437 225 431 q 220 411 74 58 q 38 -30 38 -31 q 38 -32 57 -34 q 88 -36 98 -44 q 105 -50 104 -52 q 102 -55 90 -56 q 51 -59 36 -59 q 22 -60 17 -57 z"},"6":{"x_min":0,"x_max":342,"ha":342,"o":"m 147 -33 q 181 -15 209 24 q 237 62 247 106 q 251 121 251 142 q 251 163 248 175 q 244 188 236 199 q 229 210 220 216 q 200 230 173 217 q 146 204 119 170 q 110 158 107 152 q 105 146 101 126 q 81 23 106 -26 q 111 -35 116 -40 q 122 -43 126 -42 q 131 -41 147 -33 z m 84 -72 q 18 -57 3 18 q 0 37 1 69 q 2 100 8 128 q 20 186 48 245 q 76 304 115 352 q 126 366 147 387 q 168 408 181 418 q 214 443 249 453 q 284 464 310 458 q 346 448 343 422 q 342 412 339 409 q 336 405 330 405 q 325 405 324 406 q 324 408 325 414 q 327 426 319 434 q 310 443 298 443 q 290 443 275 436 q 261 429 250 419 q 223 395 201 364 q 179 334 157 289 q 149 272 142 256 q 134 240 131 229 q 127 219 128 219 q 129 219 138 224 q 165 240 202 239 q 217 238 224 237 q 230 236 240 231 q 280 212 289 161 q 296 126 284 84 q 272 42 246 5 q 220 -32 188 -54 q 167 -67 138 -72 q 108 -77 84 -72 z"},"r":{"x_min":0,"x_max":244,"ha":244,"o":"m -59 -69 q -74 -64 -74 -57 q -74 -52 -45 1 q -16 54 4 92 q 20 123 38 150 q 55 177 65 187 q 74 195 82 196 q 91 198 102 194 q 113 190 119 185 q 126 178 125 169 q 123 160 110 134 l 94 104 l 114 122 q 127 135 154 158 q 181 182 192 190 q 203 198 223 192 q 231 190 238 185 q 245 179 245 174 q 245 169 222 135 q 205 108 190 79 q 175 51 170 33 q 165 19 166 18 q 168 16 218 64 q 238 84 246 89 q 253 95 256 94 q 260 92 260 89 q 259 86 222 49 q 186 12 177 6 q 160 -6 142 5 q 128 15 126 48 q 125 65 136 98 q 144 121 146 125 q 149 132 115 97 q 94 75 82 61 q 64 39 53 23 q 42 8 30 -14 q 15 -42 7 -51 q 0 -60 -10 -64 q -20 -68 -36 -70 q -51 -71 -59 -69 z"},"2":{"x_min":0,"x_max":408,"ha":408,"o":"m 49 -65 q 33 -62 17 -49 q 0 -36 0 -27 q 0 -5 108 88 q 208 173 254 222 q 300 271 322 314 q 334 339 338 352 q 341 364 341 379 q 341 393 338 402 q 336 411 328 420 q 320 429 311 433 q 288 444 242 430 q 195 417 158 389 q 131 369 110 342 q 88 316 78 290 q 72 274 71 257 q 70 239 74 226 q 79 209 93 198 q 107 187 123 187 q 130 187 135 184 q 139 181 139 180 q 139 179 136 177 q 132 174 119 175 q 106 176 93 181 q 74 187 60 201 q 46 215 41 233 q 37 247 38 268 q 39 288 45 304 q 63 354 112 396 q 162 437 222 453 q 260 463 299 459 q 338 455 364 439 q 409 410 409 356 q 408 302 364 235 q 339 198 298 155 q 258 113 192 55 l 144 13 l 180 12 q 237 10 283 -3 q 329 -16 352 -36 q 359 -42 364 -49 q 368 -56 366 -58 q 365 -61 360 -59 q 354 -57 349 -52 q 323 -28 246 -28 q 200 -28 157 -37 q 114 -46 82 -62 q 67 -70 49 -65 z"},"{":{"x_min":0,"x_max":280,"ha":280,"o":"m 32 -58 q 25 -56 17 -51 q 10 -45 7 -39 q -1 -23 1 2 q 3 28 17 86 q 24 115 28 135 q 32 156 33 169 q 33 182 31 188 q 28 194 22 194 q 18 194 11 197 q 4 200 4 202 q 4 205 9 208 q 14 211 18 210 q 23 209 37 219 q 52 228 66 243 q 84 260 102 285 q 120 309 155 360 q 184 403 200 424 q 216 444 228 452 q 240 460 254 460 q 278 460 280 443 q 281 435 278 430 q 275 426 270 426 q 266 427 264 429 q 263 430 263 437 q 262 447 259 448 q 254 449 236 431 q 219 412 202 387 q 144 298 126 274 q 109 250 85 228 q 66 209 54 202 l 41 196 l 45 188 q 48 182 50 163 q 50 148 48 129 q 46 110 38 65 q 31 28 30 -3 q 30 -34 36 -42 q 42 -51 59 -35 q 65 -30 67 -29 q 70 -28 74 -30 q 79 -32 79 -36 q 79 -41 73 -47 q 68 -54 60 -57 q 53 -60 47 -61 q 41 -61 32 -58 z"},"9":{"x_min":0,"x_max":342,"ha":342,"o":"m 174 171 q 194 181 215 204 q 235 227 240 245 q 249 279 251 322 q 253 365 247 387 q 242 407 234 419 q 226 431 218 429 q 201 424 179 407 q 157 390 141 370 q 114 336 101 296 q 89 257 94 223 q 99 190 121 173 q 132 164 145 163 q 157 163 174 171 z m 25 -69 q 17 -66 10 -59 q 2 -51 1 -44 q 0 -39 2 -30 q 5 -22 9 -19 q 14 -16 17 -19 q 20 -21 19 -28 q 17 -42 31 -52 q 50 -65 82 -42 q 114 -20 149 31 q 183 81 208 144 q 217 166 216 166 q 215 167 202 160 q 177 148 151 147 q 124 146 101 157 q 91 162 81 172 q 70 182 65 194 q 58 208 55 223 q 53 238 54 260 q 56 302 75 342 q 94 382 126 415 q 152 440 175 450 q 198 460 230 460 q 256 460 271 455 q 300 446 318 423 q 336 400 341 365 q 344 348 342 314 q 341 279 337 260 q 324 200 296 142 q 268 84 230 36 q 214 15 188 -9 q 162 -33 145 -43 q 112 -64 84 -70 q 72 -72 53 -72 q 34 -72 25 -69 z"}," ":{"x_min":0,"x_max":198,"ha":198,"o":""},"I":{"x_min":0,"x_max":438,"ha":438,"o":"m 300 -90 q 266 -80 261 -58 q 255 -32 279 40 q 302 113 341 192 q 380 270 423 330 q 464 388 474 404 q 484 421 482 426 q 481 428 475 429 q 468 429 447 428 q 376 426 298 401 q 219 375 155 334 q 131 319 105 295 q 79 271 67 254 q 46 223 45 195 q 44 179 47 169 q 50 160 58 148 q 64 140 77 131 q 90 122 104 117 q 110 114 114 113 q 118 111 120 109 q 122 107 122 105 q 123 104 122 102 q 119 99 113 99 q 107 100 94 104 q 70 112 49 126 q 29 139 19 152 q 9 166 5 176 q 1 186 0 202 q 0 220 3 234 q 7 248 18 265 q 47 315 117 360 q 187 405 274 433 q 361 460 438 460 q 502 460 532 437 q 546 426 550 414 q 553 401 546 383 q 539 364 519 332 q 477 262 457 226 q 436 189 418 150 q 390 89 372 33 q 353 -24 349 -62 q 347 -79 345 -83 q 344 -88 339 -90 q 333 -93 321 -93 q 309 -93 300 -90 z"},"H":{"x_min":0,"x_max":727,"ha":727,"o":"m 300 -90 q 266 -80 261 -58 q 258 -43 266 -4 q 275 34 292 78 q 299 97 299 98 q 299 100 284 97 q 269 94 250 90 q 230 85 220 81 q 210 78 207 77 q 204 77 198 80 q 192 83 188 89 q 184 94 185 98 q 189 107 221 117 q 252 126 299 131 l 312 133 l 338 186 q 380 269 423 330 q 464 388 474 404 q 484 421 482 426 q 481 428 475 429 q 468 429 447 428 q 376 426 298 401 q 219 375 155 334 q 131 319 105 295 q 79 271 67 254 q 46 223 45 195 q 44 179 47 169 q 50 160 58 148 q 64 140 77 131 q 90 122 104 117 q 110 114 114 113 q 118 111 120 109 q 122 107 122 105 q 123 104 122 102 q 119 99 113 99 q 107 100 94 104 q 70 112 49 126 q 29 139 19 152 q 9 166 5 176 q 1 186 0 202 q 0 220 3 234 q 7 248 18 265 q 47 315 117 360 q 187 405 274 433 q 361 460 438 460 q 502 460 532 437 q 546 426 550 414 q 553 401 546 383 q 539 364 519 332 q 479 266 459 231 q 440 195 424 162 l 412 137 l 459 137 q 506 137 528 135 l 549 134 l 553 142 q 570 186 592 231 q 625 297 660 347 q 694 398 717 411 q 727 416 745 418 q 775 419 780 404 q 782 399 775 384 q 768 368 741 321 q 704 256 673 196 q 642 136 645 133 q 646 132 678 130 q 703 129 712 127 q 722 124 722 118 q 722 116 715 115 q 707 114 682 114 q 637 114 634 112 q 633 111 622 83 q 604 40 593 1 q 582 -38 581 -60 q 581 -73 579 -76 q 576 -80 566 -83 q 548 -88 530 -79 q 506 -68 514 -2 q 516 15 524 48 q 532 81 538 100 l 542 112 l 505 112 q 468 112 434 110 l 400 109 l 394 94 q 379 59 367 16 q 354 -28 350 -55 q 347 -79 345 -83 q 344 -88 339 -90 q 333 -93 321 -93 q 309 -93 300 -90 z"},"4":{"x_min":0,"x_max":504,"ha":504,"o":"m 250 154 l 312 154 l 328 203 q 345 252 358 287 q 372 323 372 324 q 372 325 361 318 q 351 311 334 298 q 317 285 300 272 q 224 210 167 172 q 140 154 138 152 q 136 150 161 152 q 187 154 250 154 z m 289 -84 q 276 -81 271 -74 q 266 -68 266 -55 q 266 -18 292 83 q 301 116 300 117 q 299 118 257 115 q 214 112 192 110 q 151 105 119 97 q 86 89 74 82 q 69 79 65 78 q 62 78 54 79 q 42 80 29 87 q 15 94 8 102 q 2 109 1 113 q -1 117 3 121 q 8 124 17 128 q 26 131 44 135 q 67 140 78 147 q 90 154 140 190 q 230 255 313 327 q 397 400 420 431 q 434 450 444 456 q 455 462 470 458 q 478 456 490 450 q 501 445 503 442 q 506 438 502 428 q 499 419 485 386 q 465 341 451 307 q 432 258 412 201 q 393 144 395 142 q 396 141 419 135 q 437 131 451 125 q 466 118 473 112 q 480 106 477 102 q 476 100 470 100 q 465 100 461 103 q 458 106 439 109 q 421 112 401 114 l 386 116 l 381 100 q 370 61 354 -13 q 346 -54 342 -64 q 338 -75 328 -80 q 323 -84 310 -85 q 296 -86 289 -84 z"},"~":{"x_min":0,"x_max":393,"ha":393,"o":"m 1 166 q 17 158 37 155 q 56 152 72 152 q 88 152 112 156 q 136 160 150 163 q 164 167 190 174 q 196 175 199 176 q 270 194 305 197 q 355 201 384 154 q 390 144 393 135 q 359 156 307 152 q 273 149 204 131 q 172 123 155 119 q 137 115 111 111 q 84 107 64 107 q 32 107 10 142 q 0 160 1 166 z"},"D":{"x_min":0,"x_max":704,"ha":704,"o":"m 194 -105 q 140 -99 95 -83 q 51 -67 26 -44 q 0 -21 0 4 q 0 14 5 25 q 10 35 18 42 q 33 54 66 65 q 89 72 96 69 q 106 66 87 58 q 84 56 80 55 q 53 44 40 33 q 28 22 26 7 q 24 -15 43 -32 q 76 -64 158 -64 q 230 -64 304 -40 l 326 -33 l 312 -31 q 293 -29 279 -19 q 265 -9 261 5 q 253 35 287 123 q 320 210 377 307 q 396 338 416 367 q 437 396 451 412 q 457 418 461 420 q 465 423 472 424 q 488 428 509 420 q 531 413 536 403 q 539 396 532 382 q 525 368 494 322 q 455 262 434 227 q 414 192 391 148 q 337 40 332 -12 q 330 -26 328 -29 q 326 -31 328 -31 q 331 -31 350 -22 q 451 22 528 101 q 607 183 635 266 q 642 288 645 304 q 647 319 646 340 q 646 355 644 361 q 643 367 638 378 q 628 398 613 410 q 598 422 572 429 q 544 438 508 438 q 473 439 437 432 q 401 425 366 412 q 330 400 299 381 q 268 363 245 340 q 219 315 217 299 q 216 292 222 291 q 226 290 230 287 q 233 284 232 282 q 230 279 222 280 q 213 281 208 285 q 194 294 201 313 q 207 333 232 358 q 272 396 335 424 q 399 452 464 458 q 528 465 584 448 q 640 430 675 394 q 708 359 718 310 q 728 260 713 204 q 689 114 620 41 q 511 -73 334 -101 q 310 -105 264 -106 q 218 -108 194 -105 z"},"^":{"x_min":0,"x_max":105,"ha":105,"o":"m 5 365 q 12 370 26 389 q 41 408 57 432 q 70 452 74 456 q 77 460 83 460 q 90 460 95 458 q 101 455 102 452 q 104 449 100 432 q 97 416 98 399 q 98 381 102 375 q 110 362 96 362 q 85 362 76 368 q 67 374 62 383 l 57 393 l 46 381 q 22 356 10 356 q 2 356 1 359 q -1 361 5 365 z"},"0":{"x_min":0,"x_max":338,"ha":338,"o":"m 108 -90 q 62 -82 40 -60 q 11 -30 3 23 q -5 76 9 143 q 23 209 58 277 q 108 378 173 427 q 217 460 256 460 q 276 460 288 451 q 296 446 286 443 q 280 442 272 444 q 267 446 264 446 q 260 446 254 443 q 244 438 226 421 q 188 385 154 317 q 120 248 102 171 q 92 130 89 112 q 87 94 87 55 q 87 14 90 -1 q 92 -16 103 -37 q 118 -65 134 -61 q 148 -58 169 -43 q 190 -28 207 -9 q 246 35 272 100 q 297 165 300 230 q 302 276 290 315 q 279 353 256 372 q 247 380 243 380 q 240 380 235 384 q 230 387 230 389 q 230 392 238 395 q 245 398 250 398 q 256 398 267 395 q 292 387 310 358 q 329 329 335 285 q 343 235 332 174 q 320 113 294 56 q 267 0 231 -38 q 199 -72 164 -83 q 152 -87 134 -89 q 117 -92 108 -90 z"},"F":{"x_min":0,"x_max":390,"ha":390,"o":"m 73 220 q 44 228 22 250 q 0 271 0 292 q 0 323 42 353 q 84 383 156 407 q 228 431 317 445 q 322 450 327 452 q 334 456 340 458 q 346 459 358 460 q 380 461 390 454 q 418 457 447 458 q 534 463 617 454 q 699 446 733 428 q 750 420 749 414 q 748 408 732 412 q 698 421 610 421 q 550 421 506 417 q 463 413 407 403 q 392 400 378 397 q 370 384 358 362 q 334 319 312 280 q 291 241 291 239 q 291 236 302 238 q 315 240 353 240 q 390 239 398 237 q 408 234 414 231 q 420 227 420 224 q 420 220 415 219 q 410 218 406 220 q 400 223 376 220 q 353 218 316 211 q 278 205 274 203 q 271 201 256 169 q 241 137 225 99 q 204 48 192 4 q 179 -39 178 -64 q 178 -82 174 -84 q 168 -88 156 -90 q 144 -91 135 -89 q 116 -84 109 -70 q 98 -48 106 7 q 114 63 138 132 q 150 168 150 168 q 148 170 123 159 q 98 148 90 142 q 82 138 80 135 q 78 132 77 127 q 77 122 75 121 q 74 119 68 118 q 55 118 38 128 q 22 138 17 150 q 14 158 19 164 q 24 170 42 178 q 77 195 136 210 l 172 219 l 195 264 q 221 316 248 359 q 198 340 162 317 q 125 295 110 273 q 100 260 99 253 q 98 246 103 240 q 115 226 104 220 q 94 214 73 220 z"},"`":{"x_min":0,"x_max":83,"ha":83,"o":"m 8 390 q 16 398 23 399 q 30 400 35 397 q 39 394 44 388 q 54 378 65 361 q 76 344 83 325 q 90 306 84 298 q 77 291 56 306 q 34 321 14 346 q 6 354 3 361 q 0 368 1 375 q 2 383 8 390 z"},"k":{"x_min":0,"x_max":246,"ha":246,"o":"m 86 48 q 104 56 129 79 q 154 101 168 122 q 177 136 183 150 q 190 165 192 174 l 193 183 l 184 178 q 175 174 159 161 q 144 149 112 117 q 81 84 66 66 l 52 49 l 61 46 q 70 44 74 44 q 78 44 86 48 z m 157 -130 q 147 -127 132 -120 q 103 -106 84 -79 q 64 -52 51 -8 q 44 16 42 17 q 39 20 19 -38 q 14 -52 9 -57 q 4 -62 -6 -62 q -17 -64 -24 -61 q -31 -58 -32 -53 q -37 -36 -25 10 q -14 56 7 108 q 39 187 95 286 q 151 384 182 416 q 191 426 196 428 q 200 431 209 433 q 220 435 232 434 q 244 432 252 427 q 260 422 253 406 q 246 390 207 325 q 171 266 135 205 q 100 144 100 141 q 100 141 102 143 q 105 146 109 150 q 114 154 119 159 q 168 206 200 202 q 234 198 234 164 q 234 138 220 109 q 205 80 178 55 q 138 17 98 17 q 87 16 87 14 q 88 11 103 -23 q 118 -57 125 -70 q 140 -95 158 -107 q 176 -120 192 -116 q 198 -114 202 -115 q 207 -115 210 -116 q 212 -117 212 -119 q 210 -126 191 -129 q 173 -133 157 -130 z"},"u":{"x_min":0,"x_max":262,"ha":262,"o":"m 127 -67 q 118 -64 113 -59 q 109 -54 106 -44 q 98 -17 113 42 q 114 45 109 39 q 104 34 94 21 q 75 -5 57 -24 q 38 -43 27 -48 q 7 -58 -14 -45 q -26 -39 -29 -32 q -33 -25 -33 -10 q -33 8 -25 30 q -18 53 4 102 q 23 144 29 158 q 34 172 37 184 q 39 196 44 198 q 51 202 63 198 q 75 195 84 187 q 90 181 91 178 q 92 174 92 166 q 92 150 83 124 q 74 98 48 42 q 28 -5 24 -13 q 22 -20 23 -20 q 24 -20 26 -19 q 32 -16 51 3 q 69 22 82 38 q 122 87 157 152 q 176 188 180 190 q 188 196 205 194 q 223 192 236 183 q 246 177 246 171 q 246 165 236 149 q 203 98 178 46 q 154 -6 145 -41 l 144 -48 l 150 -44 q 160 -36 192 0 q 224 36 252 72 q 263 86 267 90 q 272 94 275 94 q 280 93 281 91 q 282 87 240 32 q 197 -22 173 -47 q 150 -70 140 -70 q 135 -70 127 -67 z"},"]":{"x_min":0,"x_max":316,"ha":316,"o":"m 41 -58 q 14 -58 7 -56 q 0 -55 0 -51 q 0 -48 9 -47 q 18 -46 53 -43 q 83 -40 87 -38 q 90 -36 92 -30 q 97 -10 242 342 q 279 431 279 432 q 279 432 260 434 q 229 436 218 444 q 212 450 213 453 q 214 455 225 456 q 240 458 266 459 q 292 460 294 460 q 299 459 308 453 q 316 447 317 445 q 317 442 297 396 q 277 350 225 227 q 127 -2 111 -34 q 106 -42 106 -45 q 106 -48 108 -52 q 108 -52 108 -53 q 111 -58 108 -59 q 103 -61 54 -59 l 53 -59 l 53 -59 l 52 -59 l 52 -59 l 52 -59 l 51 -59 l 51 -59 l 50 -59 l 50 -59 l 50 -59 l 49 -59 l 49 -59 l 48 -59 l 48 -59 l 48 -59 l 47 -59 l 47 -59 l 46 -59 l 46 -59 l 46 -59 l 45 -59 l 45 -59 l 44 -59 l 44 -58 l 44 -58 l 43 -58 l 43 -58 l 42 -58 l 42 -58 l 42 -58 z"},"U":{"x_min":0,"x_max":773,"ha":773,"o":"m 288 -111 q 264 -103 256 -86 q 250 -76 250 -55 q 251 -35 257 -17 q 271 24 320 110 q 396 242 415 311 q 419 325 420 334 q 421 344 421 363 q 421 383 420 390 q 420 396 416 404 q 406 425 386 434 q 366 442 333 438 q 278 432 224 404 q 169 377 128 340 q 86 302 61 256 q 35 210 35 167 q 35 110 76 81 q 82 77 93 74 q 104 71 112 70 q 112 70 112 67 q 112 64 105 62 q 98 61 86 63 q 75 64 64 68 q 45 76 29 93 q 12 110 6 130 q 0 145 0 168 q 0 192 6 211 q 24 280 93 345 q 161 410 246 440 q 286 454 326 458 q 365 462 396 456 q 474 440 491 372 q 494 360 494 336 q 494 311 491 296 q 482 250 459 200 q 436 151 381 64 q 340 -3 325 -34 q 310 -66 313 -84 q 314 -93 319 -95 q 324 -97 336 -94 q 393 -83 478 -8 q 526 34 582 100 q 638 167 666 216 q 718 304 740 336 q 767 378 784 397 q 801 416 813 420 q 820 422 833 422 q 846 421 852 418 q 868 410 863 394 q 858 378 818 313 q 666 64 640 -36 q 637 -50 638 -55 q 638 -59 639 -59 q 640 -59 651 -50 q 688 -19 746 54 q 781 97 784 97 q 786 97 790 95 q 792 93 788 87 q 784 80 757 43 q 683 -57 653 -76 q 643 -82 630 -82 q 613 -82 601 -74 q 590 -65 586 -48 q 583 -36 585 -12 q 586 12 592 35 q 600 64 614 100 l 619 116 l 613 109 q 607 102 584 75 q 518 -2 457 -52 q 396 -101 352 -112 q 338 -116 318 -115 q 299 -115 288 -111 z"},"o":{"x_min":0,"x_max":261,"ha":261,"o":"m 74 -33 q 82 -28 102 -10 q 122 8 127 16 q 130 21 129 22 q 129 24 124 29 q 112 41 121 58 q 131 75 151 78 q 158 79 160 81 q 161 82 163 92 q 171 126 166 144 q 164 154 162 154 q 160 154 147 140 q 110 102 84 55 q 58 7 54 -28 q 53 -38 53 -40 q 54 -42 58 -40 q 63 -39 74 -33 z m 28 -58 q 0 -48 -13 -22 q -17 -13 -18 -7 q -19 -1 -19 16 q -19 42 -14 59 q 0 106 29 142 q 59 178 94 192 q 108 197 133 197 q 157 197 171 191 q 196 181 201 164 q 206 148 199 120 q 192 92 177 64 q 162 36 165 34 q 166 33 172 34 q 195 39 216 52 q 238 65 262 88 q 270 95 274 96 q 279 98 281 95 q 284 94 278 85 q 273 77 260 65 q 248 54 233 44 q 194 19 167 16 l 151 15 l 138 -3 q 109 -41 82 -55 q 56 -68 28 -58 z"},"N":{"x_min":0,"x_max":696,"ha":696,"o":"m 642 -106 q 620 -101 599 -84 q 578 -66 566 -44 q 546 -4 552 54 q 557 112 586 182 q 635 298 686 367 q 699 384 702 388 q 703 390 702 390 q 700 389 695 385 q 656 357 605 305 q 536 236 474 152 q 412 68 372 -11 q 358 -38 354 -50 q 349 -62 347 -78 q 345 -87 338 -90 q 327 -96 303 -91 q 280 -85 269 -74 q 258 -62 261 -32 q 266 8 288 67 q 309 127 341 192 q 380 270 423 330 q 464 388 474 404 q 484 421 482 426 q 481 428 475 429 q 468 429 447 428 q 376 426 298 401 q 219 375 155 334 q 131 319 105 295 q 79 271 67 254 q 46 223 45 195 q 44 179 47 169 q 50 160 58 148 q 64 140 77 131 q 90 122 104 117 q 110 114 114 113 q 118 111 120 109 q 122 107 122 105 q 123 104 122 102 q 119 99 113 99 q 107 100 94 104 q 70 112 49 126 q 29 139 19 152 q 9 166 5 176 q 1 186 0 202 q 0 220 3 234 q 7 248 18 265 q 47 315 117 360 q 187 405 274 433 q 361 460 438 460 q 502 460 532 437 q 546 426 550 414 q 553 401 546 383 q 539 364 519 332 q 477 262 457 226 q 436 189 418 150 q 403 117 388 78 q 372 38 372 33 q 372 33 374 36 q 376 40 380 46 q 383 52 388 59 q 433 138 497 217 q 561 297 627 357 q 692 418 742 441 q 754 446 758 448 q 763 449 769 448 q 779 446 785 442 q 790 438 790 431 q 790 420 778 393 q 766 365 729 291 q 685 205 670 170 q 654 136 641 96 q 628 57 625 38 q 621 19 621 -13 q 621 -37 622 -45 q 623 -52 626 -61 q 637 -88 656 -93 q 675 -99 675 -104 q 675 -108 664 -109 q 654 -110 642 -106 z"},"+":{"x_min":0,"x_max":362,"ha":362,"o":"m 116 -21 q 106 -14 109 27 q 112 68 125 114 q 130 130 129 134 q 129 136 118 135 q 107 134 68 129 q 22 124 12 124 q 1 124 0 130 q 0 136 26 144 q 52 152 91 158 q 122 163 132 165 l 141 167 l 154 198 q 164 224 179 253 q 194 283 201 293 q 205 299 208 300 q 211 302 219 303 q 230 304 242 300 q 254 297 258 292 q 260 289 259 286 q 258 282 251 272 q 236 251 216 214 q 196 177 196 173 q 196 171 213 173 q 230 175 272 177 q 309 179 321 177 q 333 174 348 162 q 361 152 362 146 q 363 138 358 135 q 353 133 339 136 q 318 140 274 141 q 229 142 201 139 l 179 137 l 164 94 q 139 27 136 -9 q 135 -18 134 -21 q 132 -23 128 -24 q 121 -25 116 -21 z"},"G":{"x_min":0,"x_max":535,"ha":535,"o":"m 386 -96 q 382 -94 382 -91 q 382 -88 384 -71 q 391 -20 427 64 q 429 69 428 69 q 426 68 408 50 q 360 4 297 -31 q 233 -66 177 -76 q 160 -79 133 -78 q 107 -78 92 -74 q 58 -64 34 -41 q 11 -18 4 13 q 0 26 0 49 q 0 73 4 88 q 16 148 56 212 q 97 275 157 329 q 217 384 286 418 q 368 460 441 460 q 487 460 519 446 q 551 432 562 408 q 574 381 558 341 q 542 302 504 266 q 469 232 432 215 q 395 198 374 207 q 364 211 366 216 q 368 220 378 216 q 393 211 427 232 q 460 252 484 280 q 521 325 522 366 q 522 396 506 411 q 500 418 498 419 q 495 420 486 418 q 463 416 423 396 q 366 368 305 317 q 243 265 191 203 q 140 141 111 83 q 85 32 85 -5 q 84 -42 109 -54 q 118 -57 140 -57 q 162 -58 180 -54 q 222 -46 269 -23 q 316 -1 358 31 q 383 50 419 85 q 454 121 466 139 q 469 144 471 148 q 474 152 475 154 q 476 156 476 156 q 472 156 452 150 q 431 144 422 140 q 391 128 368 113 q 345 98 341 87 q 337 77 319 80 q 301 84 286 97 q 270 111 276 122 q 283 136 318 151 q 353 167 394 175 q 431 183 468 183 q 504 183 525 176 q 532 172 541 165 q 549 158 549 154 q 549 152 538 145 q 515 130 482 85 q 449 40 426 -8 q 407 -47 401 -79 q 398 -93 396 -96 q 393 -98 386 -96 z"},"q":{"x_min":0,"x_max":262,"ha":262,"o":"m 72 19 q 91 39 121 79 q 151 119 162 136 q 169 149 170 154 q 172 160 168 167 l 165 174 l 154 163 q 131 142 97 90 q 64 39 48 2 q 45 -6 47 -6 q 50 -6 72 19 z m 44 -254 q 35 -252 32 -250 q 22 -241 43 -159 q 64 -77 97 4 l 100 12 l 94 5 q 58 -35 46 -44 q 35 -53 20 -53 q 10 -53 -2 -49 q -13 -46 -19 -40 q -28 -33 -31 -24 q -35 -15 -35 -1 q -35 31 -12 73 q 10 116 45 151 q 72 177 94 189 q 116 200 142 200 q 176 200 189 188 q 193 184 195 184 q 197 183 199 185 q 207 191 223 190 q 240 190 249 183 q 255 179 256 175 q 258 171 255 160 q 252 150 244 135 q 237 120 221 92 q 205 62 183 17 q 161 -28 149 -54 q 135 -85 134 -87 q 134 -88 134 -88 q 135 -88 137 -86 q 142 -82 159 -70 q 177 -58 207 -41 q 237 -24 241 -25 q 249 -26 240 -32 q 235 -36 222 -44 q 168 -76 137 -108 l 117 -130 l 99 -177 q 82 -225 75 -238 q 69 -252 64 -253 q 57 -255 54 -255 q 50 -256 44 -254 z"},"d":{"x_min":0,"x_max":314,"ha":314,"o":"m 75 20 q 94 40 128 85 q 162 130 168 143 q 173 153 174 157 q 174 161 171 168 l 168 175 l 156 164 q 138 147 113 111 q 88 75 69 39 q 47 -3 50 -4 q 52 -5 75 20 z m 143 -83 q 126 -74 121 -53 q 118 -42 120 -17 q 121 7 126 27 q 132 49 132 51 q 132 52 127 46 q 126 45 125 43 q 116 30 98 9 q 80 -13 68 -26 q 50 -45 36 -50 q 22 -54 2 -48 q -16 -43 -24 -31 q -32 -20 -32 0 q -32 31 -10 73 q 12 116 46 150 q 69 173 89 185 q 109 197 133 201 q 144 203 160 201 q 175 199 184 195 q 192 191 193 192 q 193 193 206 217 q 235 272 274 330 q 312 388 331 405 q 340 412 348 415 q 357 418 369 417 q 400 414 400 396 q 400 389 390 371 q 381 354 353 308 q 200 58 175 -40 q 172 -54 172 -60 q 173 -64 174 -64 q 175 -64 186 -55 q 223 -24 281 49 q 316 92 319 92 q 321 92 324 90 q 328 88 323 81 q 319 75 292 38 q 218 -62 188 -81 q 181 -85 177 -86 q 172 -87 164 -87 q 151 -87 143 -83 z"},"1":{"x_min":0,"x_max":238,"ha":238,"o":"m 23 -85 q 9 -82 3 -73 q -8 -56 20 54 q 47 164 90 278 q 106 322 106 323 q 106 323 104 322 q 102 320 97 318 q 93 315 88 312 q 69 300 51 294 q 32 289 24 294 q 22 295 22 296 q 22 296 24 298 q 28 300 31 300 q 36 300 50 310 q 64 320 76 331 q 124 375 156 431 q 163 444 172 448 q 181 452 200 452 q 239 452 239 434 q 239 430 219 385 q 172 278 141 183 q 110 89 88 -14 q 80 -55 76 -65 q 72 -76 63 -81 q 57 -84 44 -86 q 31 -87 23 -85 z"},"5":{"x_min":0,"x_max":529,"ha":529,"o":"m 112 -64 q 100 -62 81 -57 q 62 -52 51 -46 q 38 -40 25 -30 q 13 -19 6 -8 q 2 0 1 12 q 0 23 4 27 q 7 30 14 32 q 21 34 25 32 q 28 31 29 29 q 30 26 30 20 q 30 0 49 -15 q 68 -30 93 -30 q 116 -30 153 -14 q 190 1 219 23 q 239 38 269 67 q 298 97 311 116 q 347 167 356 207 q 364 247 343 262 q 339 264 333 265 q 326 266 307 266 q 288 266 279 264 q 270 263 257 260 q 174 234 153 190 q 149 181 147 179 q 144 176 141 176 q 135 176 131 179 q 129 181 129 185 q 130 188 133 203 q 138 224 166 314 q 191 395 196 413 q 201 432 200 442 l 199 454 l 207 455 q 214 456 238 450 q 268 442 292 440 q 316 437 354 436 q 453 433 504 455 q 515 460 518 460 q 521 460 524 457 l 529 453 l 524 447 q 518 442 502 434 q 486 426 468 421 q 432 411 382 406 q 332 401 288 404 q 253 406 251 405 q 248 402 204 300 q 181 248 181 248 q 182 247 192 254 q 218 270 256 280 q 269 283 279 284 q 288 286 308 286 q 328 286 337 285 q 345 284 356 280 q 386 270 405 249 q 421 231 425 204 q 428 178 420 148 q 412 118 393 85 q 374 53 345 25 q 298 -23 235 -47 q 173 -70 112 -64 z"}}}
